<?xml version="1.0" encoding="UTF-8"?>
<svg xmlns="http://www.w3.org/2000/svg" xmlns:xlink="http://www.w3.org/1999/xlink" width="810pt" height="809.999993pt" viewBox="0 0 810 809.999993" version="1.2">
<defs>
<clipPath id="clip1">
  <path d="M 350 14.535156 L 796.558594 14.535156 L 796.558594 754 L 350 754 Z M 350 14.535156 "/>
</clipPath>
<clipPath id="clip2">
  <path d="M 13.558594 56 L 461 56 L 461 795.109375 L 13.558594 795.109375 Z M 13.558594 56 "/>
</clipPath>
</defs>
<g id="surface1">
<g clip-path="url(#clip1)" clip-rule="nonzero">
<path style=" stroke:none;fill-rule:evenodd;fill:rgb(100%,63.529968%,0%);fill-opacity:1;" d="M 350.140625 350.316406 L 350.140625 18.554688 C 368.761719 15.859375 387.539062 14.515625 406.316406 14.515625 C 506.136719 14.515625 605.953125 52.5625 682.105469 128.660156 C 758.257812 204.753906 796.332031 304.5 796.332031 404.238281 C 796.332031 496.050781 764.070312 587.851562 699.550781 661.21875 L 736.96875 698.609375 L 634.5625 726.03125 L 532.148438 753.449219 L 587.03125 548.785156 L 623.597656 585.324219 C 667.359375 533.015625 689.238281 468.628906 689.238281 404.238281 C 689.238281 331.894531 661.613281 259.542969 606.371094 204.339844 C 564.890625 162.890625 513.734375 137 460.171875 126.671875 L 460.171875 350.316406 L 350.140625 350.316406 "/>
</g>
<g clip-path="url(#clip2)" clip-rule="nonzero">
<path style=" stroke:none;fill-rule:evenodd;fill:rgb(100%,63.529968%,0%);fill-opacity:1;" d="M 460.171875 791.082031 C 441.554688 793.773438 422.773438 795.121094 403.996094 795.121094 C 304.175781 795.121094 204.359375 757.070312 128.207031 680.976562 C 52.058594 604.882812 13.980469 505.140625 13.980469 405.398438 C 13.980469 313.585938 46.242188 221.78125 110.761719 148.414062 L 73.34375 111.027344 L 175.753906 83.605469 L 278.160156 56.1875 L 250.722656 158.519531 L 223.28125 260.851562 L 186.714844 224.3125 C 142.957031 276.621094 121.078125 341.007812 121.078125 405.398438 C 121.078125 477.742188 148.699219 550.089844 203.945312 605.296875 C 245.425781 646.746094 296.578125 672.636719 350.140625 682.964844 L 350.140625 497.808594 L 460.171875 497.808594 L 460.171875 791.082031 "/>
</g>
<path style=" stroke:none;fill-rule:evenodd;fill:rgb(100%,63.529968%,0%);fill-opacity:1;" d="M 187.394531 404.820312 C 187.394531 524.996094 284.878906 622.417969 405.152344 622.417969 C 525.425781 622.417969 622.914062 524.996094 622.917969 404.820312 C 622.917969 284.640625 525.433594 187.21875 405.164062 187.21875 C 284.890625 187.21875 187.398438 284.640625 187.394531 404.820312 "/>
<path style=" stroke:none;fill-rule:evenodd;fill:rgb(100%,100%,100%);fill-opacity:1;" d="M 201.160156 404.820312 C 201.15625 517.398438 292.484375 608.664062 405.152344 608.664062 C 517.824219 608.664062 609.152344 517.398438 609.152344 404.820312 C 609.15625 292.234375 517.832031 200.972656 405.164062 200.972656 C 292.488281 200.972656 201.160156 292.234375 201.160156 404.820312 "/>
<path style=" stroke:none;fill-rule:evenodd;fill:rgb(100%,63.529968%,0%);fill-opacity:1;" d="M 567.582031 536.90625 C 568.605469 535.648438 569.617188 534.378906 570.609375 533.097656 C 570.859375 532.777344 571.105469 532.453125 571.355469 532.128906 C 572.164062 531.078125 572.960938 530.023438 573.75 528.960938 C 573.875 528.789062 574.003906 528.625 574.125 528.457031 C 574.136719 528.4375 574.140625 528.421875 574.152344 528.40625 C 599.558594 493.773438 614.566406 451.054688 614.566406 404.832031 C 614.566406 403.085938 614.539062 401.339844 614.5 399.597656 C 614.488281 399.269531 614.480469 398.945312 614.472656 398.617188 C 614.421875 396.941406 614.363281 395.269531 614.273438 393.597656 C 614.238281 393.015625 614.191406 392.425781 614.15625 391.839844 C 614.148438 391.722656 614.144531 391.609375 614.136719 391.492188 C 614.136719 391.488281 614.136719 391.488281 614.136719 391.480469 C 614.136719 391.457031 614.132812 391.4375 614.128906 391.414062 C 614.097656 390.976562 614.078125 390.539062 614.046875 390.097656 C 614.027344 389.859375 614.007812 389.617188 613.992188 389.375 C 613.917969 388.449219 613.851562 387.527344 613.773438 386.601562 C 613.652344 385.242188 613.519531 383.886719 613.375 382.53125 C 613.355469 382.335938 613.34375 382.144531 613.324219 381.957031 C 613.285156 381.617188 613.234375 381.28125 613.195312 380.945312 C 613.035156 379.484375 612.855469 378.027344 612.664062 376.574219 C 612.644531 376.460938 612.636719 376.339844 612.617188 376.226562 C 612.589844 375.992188 612.558594 375.757812 612.53125 375.527344 C 612.519531 375.40625 612.496094 375.289062 612.460938 375.175781 C 611.714844 369.925781 610.78125 364.722656 609.652344 359.578125 C 609.539062 358.742188 608.835938 358.105469 607.957031 358.105469 L 590.929688 358.105469 C 590.167969 355.191406 587.511719 353.015625 584.363281 353.015625 C 580.625 353.015625 577.566406 356.070312 577.566406 359.804688 C 577.566406 363.535156 580.625 366.589844 584.363281 366.589844 C 587.511719 366.589844 590.167969 364.421875 590.929688 361.5 L 606.597656 361.5 C 607.480469 365.597656 608.230469 369.753906 608.863281 373.945312 L 570.210938 373.945312 L 570.210938 321.65625 L 593.671875 321.65625 C 595.800781 326.46875 597.75 331.371094 599.511719 336.367188 C 599.828125 337.246094 600.777344 337.71875 601.664062 337.40625 C 602.542969 337.089844 603.019531 336.113281 602.703125 335.234375 C 600.792969 329.8125 598.65625 324.5 596.320312 319.292969 C 596.316406 319.289062 596.316406 319.289062 596.316406 319.28125 C 596.261719 319.160156 596.207031 319.042969 596.152344 318.921875 C 595.683594 317.886719 595.214844 316.855469 594.726562 315.828125 C 594.726562 315.828125 594.726562 315.824219 594.722656 315.820312 C 592.75 311.628906 590.636719 307.511719 588.398438 303.480469 C 588.351562 303.367188 588.289062 303.257812 588.21875 303.15625 C 588.148438 303.03125 588.082031 302.902344 588.007812 302.777344 C 587.921875 302.621094 587.835938 302.46875 587.75 302.308594 C 587.3125 301.53125 586.863281 300.761719 586.414062 299.988281 C 586.203125 299.628906 585.996094 299.261719 585.785156 298.902344 C 585.382812 298.21875 584.972656 297.542969 584.566406 296.867188 C 584.296875 296.421875 584.027344 295.972656 583.757812 295.527344 C 583.375 294.910156 582.988281 294.292969 582.601562 293.671875 C 582.285156 293.179688 581.976562 292.683594 581.660156 292.191406 C 581.292969 291.617188 580.921875 291.046875 580.546875 290.472656 C 580.199219 289.945312 579.851562 289.414062 579.5 288.890625 C 579.144531 288.351562 578.78125 287.820312 578.417969 287.28125 C 578.039062 286.730469 577.660156 286.175781 577.28125 285.625 C 576.929688 285.121094 576.574219 284.621094 576.222656 284.121094 C 575.8125 283.542969 575.398438 282.964844 574.984375 282.394531 C 574.648438 281.925781 574.304688 281.457031 573.960938 280.988281 C 573.519531 280.386719 573.074219 279.789062 572.621094 279.191406 C 572.300781 278.757812 571.972656 278.328125 571.640625 277.894531 C 571.160156 277.261719 570.671875 276.636719 570.183594 276.011719 C 569.875 275.621094 569.574219 275.230469 569.261719 274.839844 C 568.730469 274.171875 568.191406 273.507812 567.652344 272.84375 C 567.375 272.503906 567.101562 272.164062 566.824219 271.828125 C 566.21875 271.09375 565.605469 270.367188 564.992188 269.640625 C 564.769531 269.382812 564.550781 269.117188 564.332031 268.859375 C 563.59375 267.996094 562.847656 267.140625 562.089844 266.289062 C 561.992188 266.175781 561.886719 266.054688 561.78125 265.9375 C 558.242188 261.957031 554.554688 258.105469 550.722656 254.40625 C 550.699219 254.378906 550.671875 254.359375 550.648438 254.332031 C 549.726562 253.441406 548.796875 252.5625 547.855469 251.683594 C 547.773438 251.613281 547.695312 251.539062 547.617188 251.464844 C 546.726562 250.640625 545.828125 249.820312 544.925781 249.011719 C 544.820312 248.917969 544.71875 248.828125 544.617188 248.734375 C 543.726562 247.945312 542.832031 247.15625 541.929688 246.375 C 541.820312 246.28125 541.714844 246.191406 541.609375 246.101562 C 540.699219 245.320312 539.785156 244.546875 538.859375 243.78125 C 538.769531 243.703125 538.675781 243.628906 538.585938 243.550781 C 537.632812 242.765625 536.675781 241.984375 535.710938 241.214844 C 535.648438 241.167969 535.589844 241.117188 535.53125 241.070312 C 534.511719 240.261719 533.488281 239.460938 532.457031 238.671875 C 532.453125 238.667969 532.449219 238.664062 532.441406 238.660156 C 528.039062 235.285156 523.503906 232.074219 518.835938 229.050781 C 511.390625 224.238281 503.617188 219.886719 495.5625 216.027344 C 495.457031 215.976562 495.347656 215.925781 495.242188 215.875 C 494.203125 215.382812 493.164062 214.898438 492.121094 214.417969 C 491.90625 214.320312 491.691406 214.226562 491.476562 214.125 C 490.535156 213.699219 489.59375 213.28125 488.648438 212.871094 C 488.355469 212.746094 488.0625 212.617188 487.769531 212.492188 C 486.894531 212.117188 486.019531 211.746094 485.140625 211.382812 C 484.792969 211.238281 484.441406 211.09375 484.089844 210.953125 C 483.261719 210.617188 482.429688 210.28125 481.589844 209.957031 C 481.203125 209.800781 480.816406 209.648438 480.421875 209.5 C 479.625 209.191406 478.820312 208.886719 478.015625 208.589844 C 477.59375 208.433594 477.167969 208.277344 476.738281 208.117188 C 475.960938 207.839844 475.183594 207.5625 474.398438 207.285156 C 473.949219 207.128906 473.503906 206.972656 473.054688 206.816406 C 472.28125 206.550781 471.503906 206.296875 470.722656 206.039062 C 470.265625 205.886719 469.808594 205.730469 469.347656 205.585938 C 468.5625 205.332031 467.769531 205.089844 466.976562 204.84375 C 466.527344 204.707031 466.074219 204.5625 465.621094 204.425781 C 464.765625 204.167969 463.902344 203.921875 463.042969 203.671875 C 462.65625 203.5625 462.265625 203.441406 461.875 203.335938 C 460.648438 202.988281 459.414062 202.65625 458.179688 202.335938 C 457.667969 202.199219 457.148438 202.078125 456.632812 201.949219 C 455.894531 201.757812 455.152344 201.570312 454.40625 201.390625 C 453.808594 201.242188 453.207031 201.109375 452.601562 200.96875 C 451.941406 200.816406 451.273438 200.660156 450.609375 200.515625 C 449.980469 200.375 449.347656 200.242188 448.71875 200.109375 C 448.070312 199.972656 447.425781 199.835938 446.78125 199.707031 C 446.140625 199.574219 445.496094 199.453125 444.855469 199.328125 C 444.210938 199.207031 443.5625 199.082031 442.921875 198.964844 C 442.273438 198.847656 441.628906 198.734375 440.980469 198.625 C 440.332031 198.511719 439.679688 198.402344 439.027344 198.292969 C 438.382812 198.1875 437.738281 198.089844 437.085938 197.992188 C 436.429688 197.890625 435.769531 197.789062 435.109375 197.695312 C 434.46875 197.601562 433.824219 197.515625 433.179688 197.429688 C 432.503906 197.339844 431.832031 197.253906 431.15625 197.167969 C 430.519531 197.09375 429.882812 197.011719 429.246094 196.941406 C 428.554688 196.863281 427.863281 196.785156 427.171875 196.714844 C 426.542969 196.652344 425.914062 196.585938 425.289062 196.523438 C 424.578125 196.457031 423.863281 196.394531 423.152344 196.335938 C 422.539062 196.285156 421.921875 196.230469 421.308594 196.183594 C 420.570312 196.125 419.828125 196.078125 419.089844 196.027344 C 418.496094 195.988281 417.898438 195.949219 417.300781 195.914062 C 416.519531 195.871094 415.738281 195.835938 414.953125 195.796875 C 414.390625 195.773438 413.835938 195.746094 413.28125 195.722656 C 412.398438 195.6875 411.511719 195.664062 410.625 195.644531 C 410.160156 195.628906 409.703125 195.613281 409.234375 195.605469 C 407.882812 195.578125 406.527344 195.566406 405.167969 195.566406 C 384.652344 195.566406 364.832031 198.527344 346.09375 204.023438 C 346.085938 204.023438 346.082031 204.023438 346.074219 204.023438 C 346.046875 204.03125 346.027344 204.039062 346.003906 204.046875 C 334.992188 207.28125 324.34375 211.390625 314.167969 216.304688 C 314.160156 216.304688 314.152344 216.308594 314.144531 216.3125 C 313.902344 216.429688 313.660156 216.558594 313.410156 216.679688 C 312.097656 217.320312 310.785156 217.96875 309.488281 218.636719 C 309.0625 218.859375 308.640625 219.082031 308.21875 219.308594 C 307.082031 219.902344 305.941406 220.503906 304.816406 221.117188 C 304.359375 221.371094 303.90625 221.628906 303.449219 221.878906 C 302.363281 222.484375 301.277344 223.09375 300.203125 223.714844 C 299.746094 223.984375 299.292969 224.253906 298.839844 224.523438 C 298.621094 224.652344 298.40625 224.777344 298.195312 224.902344 C 298.191406 224.90625 298.1875 224.910156 298.183594 224.910156 C 298.160156 224.921875 298.144531 224.933594 298.125 224.945312 C 297.296875 225.4375 296.472656 225.933594 295.652344 226.4375 C 295.207031 226.710938 294.773438 226.988281 294.335938 227.261719 C 293.269531 227.925781 292.210938 228.597656 291.15625 229.28125 C 290.746094 229.546875 290.339844 229.816406 289.933594 230.085938 C 289.902344 230.101562 289.875 230.121094 289.851562 230.140625 C 288.800781 230.832031 287.753906 231.535156 286.71875 232.25 C 286.34375 232.507812 285.964844 232.765625 285.589844 233.027344 C 284.5 233.789062 283.410156 234.558594 282.332031 235.34375 C 282.003906 235.582031 281.675781 235.820312 281.347656 236.0625 C 280.21875 236.886719 279.097656 237.730469 277.992188 238.578125 C 277.828125 238.699219 277.667969 238.816406 277.511719 238.9375 C 277.402344 239.019531 277.300781 239.105469 277.191406 239.1875 C 275.953125 240.148438 274.726562 241.117188 273.511719 242.101562 C 273.382812 242.203125 273.261719 242.300781 273.136719 242.402344 C 269.355469 245.472656 265.6875 248.675781 262.128906 252 C 262.117188 252.015625 262.101562 252.027344 262.089844 252.035156 C 262.085938 252.039062 262.085938 252.039062 262.085938 252.042969 C 261.238281 252.835938 260.402344 253.632812 259.566406 254.4375 C 259.402344 254.597656 259.242188 254.753906 259.082031 254.914062 C 258.414062 255.558594 257.742188 256.203125 257.089844 256.855469 C 256.636719 257.308594 256.195312 257.773438 255.746094 258.230469 C 255.503906 258.476562 255.261719 258.726562 255.019531 258.972656 C 253.996094 260.027344 252.984375 261.085938 251.980469 262.160156 C 251.71875 262.445312 251.457031 262.726562 251.191406 263.007812 C 250.191406 264.09375 249.203125 265.191406 248.226562 266.292969 C 247.996094 266.554688 247.765625 266.8125 247.535156 267.070312 C 247.125 267.542969 246.714844 268.007812 246.308594 268.480469 C 246.242188 268.558594 246.171875 268.632812 246.105469 268.714844 C 246.089844 268.730469 246.082031 268.75 246.066406 268.761719 C 245.496094 269.433594 244.925781 270.109375 244.363281 270.78125 C 244.246094 270.917969 244.128906 271.050781 244.015625 271.191406 C 240.480469 275.445312 237.113281 279.84375 233.914062 284.367188 C 233.753906 284.597656 233.597656 284.832031 233.4375 285.0625 C 232.558594 286.316406 231.691406 287.582031 230.839844 288.855469 C 230.625 289.179688 230.40625 289.511719 230.191406 289.835938 C 229.402344 291.035156 228.625 292.242188 227.855469 293.460938 C 227.632812 293.8125 227.410156 294.167969 227.1875 294.527344 C 226.429688 295.746094 225.6875 296.972656 224.953125 298.210938 C 224.75 298.546875 224.550781 298.882812 224.351562 299.222656 C 223.589844 300.527344 222.835938 301.839844 222.101562 303.160156 C 221.953125 303.429688 221.800781 303.695312 221.652344 303.964844 C 220.824219 305.464844 220.011719 306.976562 219.222656 308.5 C 219.179688 308.589844 219.128906 308.675781 219.085938 308.761719 C 204.179688 337.53125 195.746094 370.199219 195.746094 404.832031 C 195.746094 406.625 195.773438 408.410156 195.816406 410.191406 C 195.832031 410.894531 195.871094 411.589844 195.894531 412.292969 C 195.929688 413.367188 195.960938 414.445312 196.015625 415.515625 C 196.066406 416.523438 196.140625 417.519531 196.203125 418.519531 C 196.253906 419.273438 196.289062 420.035156 196.347656 420.785156 C 196.453125 422.167969 196.582031 423.546875 196.714844 424.925781 C 196.746094 425.277344 196.773438 425.636719 196.808594 425.988281 C 200.0625 458.378906 210.714844 488.585938 227.046875 514.914062 C 227.242188 515.226562 227.4375 515.535156 227.632812 515.847656 C 229.269531 518.457031 230.960938 521.027344 232.710938 523.554688 C 232.839844 523.742188 232.964844 523.925781 233.09375 524.109375 C 234.9375 526.757812 236.835938 529.355469 238.792969 531.910156 C 238.84375 531.976562 238.890625 532.042969 238.941406 532.105469 C 244.539062 539.394531 250.597656 546.3125 257.089844 552.800781 C 274.195312 569.894531 294.257812 584.03125 316.441406 594.414062 C 316.632812 594.503906 316.835938 594.59375 317.035156 594.6875 C 319.746094 595.945312 322.488281 597.152344 325.265625 598.296875 C 325.691406 598.46875 326.117188 598.644531 326.546875 598.820312 C 327.867188 599.355469 329.199219 599.875 330.527344 600.382812 C 331.074219 600.589844 331.621094 600.800781 332.167969 601.007812 C 332.925781 601.289062 333.691406 601.5625 334.457031 601.835938 C 335.082031 602.058594 335.710938 602.28125 336.335938 602.5 C 337.390625 602.867188 338.445312 603.226562 339.503906 603.574219 C 340.296875 603.832031 341.089844 604.09375 341.882812 604.34375 C 342.566406 604.5625 343.25 604.773438 343.9375 604.980469 C 344.78125 605.242188 345.628906 605.488281 346.484375 605.738281 C 347.351562 605.992188 348.222656 606.238281 349.097656 606.480469 C 349.996094 606.730469 350.894531 606.972656 351.800781 607.210938 C 352.425781 607.375 353.050781 607.539062 353.675781 607.695312 C 354.851562 607.992188 356.035156 608.28125 357.21875 608.558594 C 357.808594 608.699219 358.398438 608.828125 358.988281 608.960938 C 359.96875 609.179688 360.949219 609.394531 361.933594 609.601562 C 362.5 609.71875 363.058594 609.835938 363.628906 609.953125 C 364.957031 610.21875 366.296875 610.476562 367.640625 610.722656 C 368.125 610.808594 368.609375 610.886719 369.09375 610.972656 C 370.15625 611.15625 371.222656 611.332031 372.289062 611.5 C 372.78125 611.578125 373.273438 611.660156 373.769531 611.730469 C 375.167969 611.945312 376.570312 612.136719 377.980469 612.320312 C 378.4375 612.382812 378.90625 612.4375 379.371094 612.492188 C 380.539062 612.636719 381.707031 612.769531 382.878906 612.890625 C 383.28125 612.9375 383.683594 612.980469 384.085938 613.023438 C 385.546875 613.167969 387.011719 613.296875 388.484375 613.414062 C 388.925781 613.445312 389.367188 613.476562 389.808594 613.511719 C 391.128906 613.605469 392.445312 613.691406 393.769531 613.761719 C 394.03125 613.773438 394.289062 613.792969 394.550781 613.804688 C 396.089844 613.878906 397.628906 613.9375 399.171875 613.980469 C 399.574219 613.992188 399.976562 614.003906 400.378906 614.011719 C 401.949219 614.046875 403.527344 614.070312 405.105469 614.070312 C 405.121094 614.070312 405.132812 614.070312 405.148438 614.070312 L 405.167969 614.070312 C 462.996094 614.070312 515.347656 590.652344 553.230469 552.800781 C 554.824219 551.207031 556.382812 549.578125 557.925781 547.929688 C 558 547.855469 558.070312 547.785156 558.144531 547.707031 C 558.152344 547.699219 558.15625 547.6875 558.167969 547.671875 C 561.367188 544.257812 564.449219 540.738281 567.410156 537.113281 C 567.46875 537.046875 567.523438 536.972656 567.582031 536.90625 Z M 510.300781 570.5625 C 509.800781 569.769531 508.757812 569.519531 507.945312 570.019531 C 492.796875 579.453125 476.242188 586.875 458.652344 591.875 C 441.667969 596.742188 423.714844 599.316406 405.167969 599.316406 C 378.722656 599.316406 353.523438 594.050781 330.539062 584.523438 C 307.941406 575.15625 287.515625 561.644531 270.171875 544.949219 L 277.964844 544.949219 C 278.722656 547.867188 281.378906 550.042969 284.53125 550.042969 C 288.265625 550.042969 291.320312 546.988281 291.320312 543.253906 C 291.320312 540.109375 289.148438 537.449219 286.226562 536.691406 L 286.226562 509.382812 L 298.679688 509.382812 L 298.679688 551.714844 C 298.679688 552.328125 299.019531 552.871094 299.496094 553.164062 C 314.847656 564.089844 331.742188 572.527344 349.578125 578.230469 C 367.355469 583.910156 386.082031 586.875 405.167969 586.875 C 422.21875 586.875 439.066406 584.523438 455.253906 579.90625 C 471.398438 575.3125 486.90625 568.457031 501.355469 559.453125 L 523 545.96875 L 523 573.691406 C 522.464844 574.066406 521.925781 574.445312 521.378906 574.8125 C 520.886719 575.152344 520.386719 575.492188 519.886719 575.832031 C 518.917969 576.480469 517.9375 577.121094 516.957031 577.757812 C 516.589844 577.996094 516.226562 578.234375 515.855469 578.46875 C 514.742188 579.179688 513.617188 579.882812 512.488281 580.570312 C 512.242188 580.722656 511.996094 580.875 511.753906 581.023438 C 511.355469 581.265625 510.949219 581.496094 510.546875 581.738281 L 510.546875 571.441406 C 510.546875 571.148438 510.457031 570.832031 510.300781 570.5625 Z M 224.867188 325.347656 L 217.394531 325.347656 L 217.394531 320.007812 C 218.914062 316.652344 220.523438 313.347656 222.214844 310.089844 C 222.28125 309.964844 222.347656 309.839844 222.417969 309.714844 C 223.1875 308.238281 223.972656 306.773438 224.777344 305.320312 C 224.886719 305.121094 225.003906 304.921875 225.113281 304.722656 C 225.890625 303.328125 226.679688 301.949219 227.488281 300.578125 C 227.609375 300.367188 227.730469 300.164062 227.855469 299.957031 C 228.507812 298.859375 229.175781 297.773438 229.847656 296.6875 L 229.847656 311.203125 C 229.847656 312.152344 230.617188 312.902344 231.542969 312.902344 L 242.410156 312.902344 C 242.792969 314.375 243.652344 315.652344 244.820312 316.558594 L 237.863281 332.679688 C 232.925781 344.058594 229.214844 355.867188 226.722656 367.929688 C 224.671875 377.871094 223.480469 388.003906 223.117188 398.230469 C 220.121094 398.929688 217.871094 401.628906 217.871094 404.832031 C 217.871094 408.5625 220.921875 411.617188 224.660156 411.617188 C 228.398438 411.617188 231.453125 408.5625 231.453125 404.832031 C 231.453125 401.730469 229.347656 399.105469 226.496094 398.300781 C 226.859375 388.292969 228.042969 378.359375 230.050781 368.582031 C 232.492188 356.75 236.140625 345.167969 240.964844 334.011719 L 247.9375 317.902344 C 248.277344 317.957031 248.625 317.992188 248.980469 317.992188 C 252.714844 317.992188 255.773438 314.960938 255.773438 311.203125 C 255.773438 307.46875 252.714844 304.417969 248.980469 304.417969 C 245.832031 304.417969 243.171875 306.589844 242.414062 309.507812 L 233.242188 309.507812 L 233.242188 291.375 C 233.308594 291.277344 233.371094 291.171875 233.441406 291.070312 C 233.617188 290.804688 233.804688 290.539062 233.980469 290.273438 C 234.714844 289.183594 235.453125 288.101562 236.207031 287.027344 C 236.527344 286.570312 236.851562 286.113281 237.171875 285.65625 C 237.871094 284.675781 238.578125 283.703125 239.296875 282.738281 C 239.570312 282.363281 239.839844 281.988281 240.117188 281.617188 C 241.019531 280.410156 241.9375 279.222656 242.867188 278.035156 C 243.292969 277.492188 243.722656 276.957031 244.152344 276.417969 C 244.660156 275.78125 245.179688 275.144531 245.699219 274.511719 L 245.699219 295.367188 C 245.699219 296.316406 246.46875 297.0625 247.394531 297.0625 L 270.535156 297.0625 L 252.398438 338.941406 C 247.917969 349.351562 244.519531 360.121094 242.253906 371.117188 C 239.96875 382.179688 238.835938 393.449219 238.835938 404.832031 C 238.835938 407.792969 238.902344 410.757812 239.0625 413.652344 C 239.21875 416.59375 239.445312 419.539062 239.742188 422.457031 C 239.832031 423.335938 240.578125 423.96875 241.4375 423.96875 L 241.4375 423.992188 L 311.972656 423.992188 L 311.972656 474.519531 L 302.074219 474.519531 L 302.074219 444.675781 C 304.996094 443.921875 307.171875 441.28125 307.171875 438.136719 C 307.171875 434.378906 304.113281 431.347656 300.378906 431.347656 C 296.644531 431.347656 293.585938 434.378906 293.585938 438.136719 C 293.585938 441.28125 295.757812 443.921875 298.679688 444.675781 L 298.679688 474.519531 L 286.226562 474.519531 L 286.226562 453.972656 C 286.226562 453.023438 285.457031 452.273438 284.53125 452.273438 L 216.332031 452.273438 C 214.476562 444.808594 213.023438 437.207031 212.050781 429.425781 C 211.03125 421.367188 210.511719 413.15625 210.511719 404.832031 C 210.511719 391.320312 211.890625 378.132812 214.519531 365.394531 C 217.210938 352.359375 221.195312 339.804688 226.359375 327.859375 C 226.496094 327.632812 226.5625 327.335938 226.5625 327.042969 C 226.5625 326.117188 225.792969 325.347656 224.867188 325.347656 Z M 329.226562 239.503906 C 329.496094 240.386719 330.449219 240.886719 331.351562 240.613281 L 351.914062 234.210938 C 360.515625 231.539062 369.277344 229.523438 378.15625 228.191406 C 387.078125 226.832031 396.113281 226.152344 405.167969 226.152344 C 427.855469 226.152344 449.933594 230.429688 470.421875 238.441406 C 489.574219 245.945312 507.316406 256.714844 522.898438 270.347656 C 522.894531 270.417969 522.886719 270.476562 522.886719 270.546875 C 522.886719 270.613281 522.894531 270.683594 522.898438 270.75 L 520.964844 270.75 C 520.011719 270.75 519.261719 271.519531 519.261719 272.445312 L 519.261719 423.15625 C 519.261719 424.082031 520.011719 424.851562 520.964844 424.851562 L 582.84375 424.851562 C 581.441406 437.5 578.679688 449.898438 574.648438 461.890625 C 570.414062 474.425781 564.773438 486.507812 557.78125 497.9375 L 555.515625 501.644531 C 555.3125 501.914062 555.195312 502.257812 555.195312 502.617188 L 555.195312 545.863281 C 555.082031 545.988281 554.96875 546.113281 554.851562 546.234375 C 553.992188 547.144531 553.117188 548.046875 552.242188 548.941406 C 551.941406 549.246094 551.644531 549.554688 551.339844 549.859375 C 550.375 550.835938 549.386719 551.800781 548.394531 552.765625 C 548.183594 552.96875 547.972656 553.175781 547.761719 553.378906 C 546.695312 554.402344 545.617188 555.414062 544.527344 556.421875 C 544.367188 556.5625 544.210938 556.710938 544.046875 556.859375 C 543.621094 557.25 543.175781 557.636719 542.746094 558.023438 L 542.746094 498.636719 L 547.160156 491.441406 C 552.097656 483.382812 556.308594 474.945312 559.773438 466.257812 C 563.257812 457.527344 565.976562 448.519531 567.898438 439.332031 C 568.105469 438.425781 567.515625 437.523438 566.585938 437.339844 C 566.472656 437.320312 566.359375 437.296875 566.25 437.296875 L 521.105469 437.296875 C 519.328125 430.015625 515.738281 423.074219 510.136719 416.957031 C 505.066406 411.445312 498.679688 406.925781 490.960938 403.390625 L 490.960938 389.121094 C 503.054688 379.921875 510.136719 366.925781 510.136719 352.652344 C 510.136719 343.625 507.558594 335.460938 502.417969 328.195312 C 499.144531 323.582031 495.304688 319.539062 490.960938 316.078125 L 490.960938 282.128906 C 490.960938 281.496094 490.621094 280.953125 490.121094 280.660156 C 477.714844 272.175781 464.109375 265.613281 449.730469 261.160156 C 435.484375 256.746094 420.5 254.4375 405.167969 254.4375 C 397.539062 254.4375 389.953125 255.003906 382.433594 256.15625 C 374.964844 257.265625 367.582031 258.960938 360.335938 261.222656 L 343.757812 266.382812 L 320.371094 266.382812 L 320.371094 273.660156 L 300.851562 279.730469 L 300.851562 227.289062 C 300.925781 227.242188 301.003906 227.199219 301.078125 227.152344 C 302.105469 226.546875 303.148438 225.957031 304.1875 225.371094 C 304.90625 224.964844 305.632812 224.566406 306.355469 224.167969 C 307.1875 223.714844 308.023438 223.261719 308.867188 222.816406 C 309.460938 222.5 310.0625 222.183594 310.667969 221.871094 C 311.542969 221.421875 312.421875 220.976562 313.308594 220.535156 L 313.308594 260.523438 C 313.308594 260.679688 313.332031 260.863281 313.375 261.023438 C 313.648438 261.925781 314.597656 262.421875 315.503906 262.128906 L 356.621094 249.324219 C 364.457031 246.902344 372.449219 245.066406 380.554688 243.851562 C 386.539062 242.933594 392.570312 242.363281 398.632812 242.125 C 399.441406 244.976562 402.066406 247.085938 405.167969 247.085938 C 408.902344 247.085938 411.960938 244.03125 411.960938 240.296875 C 411.960938 236.5625 408.902344 233.507812 405.167969 233.507812 C 401.972656 233.507812 399.277344 235.746094 398.566406 238.730469 C 392.359375 238.976562 386.171875 239.5625 380.035156 240.5 C 371.792969 241.742188 363.621094 243.597656 355.625 246.109375 L 316.707031 258.214844 L 316.707031 218.886719 C 317.472656 218.519531 318.238281 218.148438 319.015625 217.792969 C 319.460938 217.585938 319.914062 217.382812 320.363281 217.183594 C 321.480469 216.675781 322.597656 216.183594 323.722656 215.699219 C 324.109375 215.53125 324.492188 215.363281 324.878906 215.199219 C 326.296875 214.601562 327.722656 214.015625 329.15625 213.449219 L 329.15625 239.003906 C 329.15625 239.164062 329.179688 239.320312 329.226562 239.503906 Z M 302.074219 509.382812 L 314.53125 509.382812 L 314.53125 543.320312 C 314.53125 543.953125 314.894531 544.519531 315.414062 544.8125 C 328.703125 553.34375 343.128906 559.90625 358.277344 564.339844 C 373.355469 568.75 389.113281 571.039062 405.167969 571.039062 C 420.746094 571.039062 436.121094 568.886719 450.882812 564.679688 C 463.535156 561.066406 475.753906 555.949219 487.308594 549.378906 C 488.535156 550.597656 490.222656 551.351562 492.09375 551.351562 C 495.832031 551.351562 498.863281 548.296875 498.863281 544.5625 C 498.863281 540.832031 495.832031 537.777344 492.09375 537.777344 C 488.335938 537.777344 485.300781 540.832031 485.300781 544.5625 C 485.300781 545.222656 485.398438 545.855469 485.574219 546.453125 C 474.277344 552.878906 462.332031 557.894531 449.957031 561.421875 C 435.484375 565.539062 420.429688 567.644531 405.167969 567.644531 C 389.410156 567.644531 373.96875 565.402344 359.226562 561.101562 C 344.667969 556.828125 330.789062 550.539062 317.929688 542.394531 L 317.929688 509.382812 L 320.371094 509.382812 L 320.371094 543.253906 L 346.285156 543.253906 C 352.964844 546.085938 359.835938 548.453125 366.878906 550.289062 C 379.265625 553.523438 392.101562 555.199219 405.167969 555.199219 C 419.277344 555.199219 433.15625 553.253906 446.539062 549.453125 C 459.847656 545.648438 472.644531 539.996094 484.597656 532.574219 L 526.105469 506.710938 C 526.621094 506.394531 526.894531 505.851562 526.894531 505.285156 L 526.894531 494.175781 L 533.640625 483.15625 C 536.335938 478.769531 538.78125 474.246094 541 469.609375 C 542.207031 467.089844 543.335938 464.554688 544.390625 462.003906 C 544.882812 462.117188 545.390625 462.1875 545.914062 462.1875 C 549.652344 462.1875 552.707031 459.132812 552.707031 455.398438 C 552.707031 451.664062 549.652344 448.609375 545.914062 448.609375 C 542.972656 448.609375 540.460938 450.507812 539.519531 453.132812 L 522.210938 453.132812 C 522.609375 448.960938 522.476562 444.789062 521.800781 440.691406 L 564.140625 440.691406 C 562.285156 448.992188 559.773438 457.117188 556.625 465.011719 C 553.25 473.523438 549.109375 481.757812 544.257812 489.675781 L 539.667969 497.1875 C 539.460938 497.457031 539.347656 497.800781 539.347656 498.160156 L 539.347656 561.015625 C 538.875 561.421875 538.402344 561.828125 537.921875 562.230469 C 537.8125 562.320312 537.707031 562.414062 537.597656 562.503906 C 537.125 562.902344 536.644531 563.304688 536.171875 563.695312 C 535.664062 564.113281 535.160156 564.519531 534.648438 564.933594 C 534.386719 565.148438 534.125 565.359375 533.859375 565.570312 C 533.308594 566.007812 532.757812 566.449219 532.203125 566.882812 C 531.878906 567.136719 531.550781 567.394531 531.226562 567.644531 C 530.777344 567.988281 530.332031 568.335938 529.878906 568.675781 C 529.359375 569.070312 528.835938 569.46875 528.3125 569.863281 C 528.03125 570.070312 527.75 570.277344 527.46875 570.488281 C 527.113281 570.75 526.753906 571.007812 526.398438 571.269531 L 526.398438 542.914062 C 526.398438 542.621094 526.304688 542.304688 526.148438 542.03125 C 525.652344 541.21875 524.605469 540.992188 523.792969 541.488281 L 499.5625 556.578125 C 485.390625 565.402344 470.175781 572.121094 454.324219 576.648438 C 438.429688 581.171875 421.921875 583.480469 405.167969 583.480469 C 386.398438 583.480469 368.011719 580.585938 350.601562 575.019531 C 333.34375 569.5 316.976562 561.375 302.074219 550.832031 Z M 273.09375 293.667969 L 249.09375 293.667969 L 249.09375 270.476562 C 249.199219 270.355469 249.304688 270.230469 249.410156 270.109375 C 249.507812 269.996094 249.601562 269.882812 249.695312 269.773438 C 250.28125 269.105469 250.867188 268.445312 251.453125 267.789062 C 251.507812 267.726562 251.558594 267.671875 251.613281 267.609375 C 252.164062 266.996094 252.714844 266.375 253.277344 265.769531 C 253.460938 265.566406 253.648438 265.367188 253.835938 265.164062 C 254.261719 264.707031 254.683594 264.25 255.113281 263.796875 C 255.582031 263.300781 256.050781 262.808594 256.523438 262.316406 C 256.855469 261.972656 257.183594 261.628906 257.515625 261.289062 C 257.949219 260.84375 258.382812 260.398438 258.816406 259.960938 C 259.28125 259.492188 259.753906 259.027344 260.21875 258.558594 C 260.417969 258.367188 260.617188 258.167969 260.8125 257.972656 C 261.054688 257.734375 261.304688 257.5 261.546875 257.261719 L 261.546875 279.527344 C 261.546875 280.480469 262.316406 281.226562 263.246094 281.226562 C 264.171875 281.226562 264.941406 280.480469 264.941406 279.527344 L 264.941406 254.035156 C 265.53125 253.492188 266.117188 252.945312 266.710938 252.40625 C 266.769531 252.351562 266.835938 252.296875 266.894531 252.238281 C 267.132812 252.023438 267.375 251.8125 267.613281 251.597656 C 268.363281 250.921875 269.117188 250.25 269.878906 249.585938 C 269.910156 249.5625 269.941406 249.53125 269.972656 249.507812 C 270.9375 248.664062 271.910156 247.835938 272.890625 247.011719 C 272.925781 246.984375 272.960938 246.957031 272.992188 246.929688 C 273.890625 246.179688 274.796875 245.4375 275.707031 244.703125 C 275.953125 244.503906 276.195312 244.308594 276.441406 244.113281 C 277.136719 243.554688 277.839844 243 278.542969 242.457031 C 279.078125 242.039062 279.613281 241.625 280.152344 241.214844 C 280.78125 240.734375 281.414062 240.25 282.050781 239.769531 C 282.167969 239.683594 282.285156 239.601562 282.402344 239.515625 C 283.097656 238.996094 283.804688 238.484375 284.511719 237.96875 C 284.859375 237.722656 285.199219 237.46875 285.542969 237.226562 C 286.359375 236.644531 287.175781 236.070312 287.996094 235.5 C 288.421875 235.210938 288.84375 234.921875 289.265625 234.636719 C 290.640625 233.695312 292.03125 232.777344 293.429688 231.871094 C 293.863281 231.59375 294.296875 231.3125 294.730469 231.03125 C 295.082031 230.8125 295.433594 230.59375 295.785156 230.371094 C 296.234375 230.089844 296.6875 229.804688 297.144531 229.523438 C 297.25 229.460938 297.351562 229.398438 297.457031 229.332031 L 297.457031 282.039062 C 297.457031 282.199219 297.476562 282.378906 297.523438 282.539062 C 297.796875 283.441406 298.75 283.941406 299.65625 283.667969 L 320.371094 277.214844 L 320.371094 290.246094 L 306.828125 294.460938 C 306.285156 294.617188 305.902344 295.027344 305.722656 295.523438 L 303.753906 300.074219 L 284.53125 300.074219 L 284.53125 334.9375 L 288.6875 334.9375 L 281.515625 351.523438 C 278.824219 357.726562 276.625 364.105469 274.925781 370.574219 C 273.207031 377.089844 272.007812 383.71875 271.285156 390.441406 C 271.195312 391.367188 271.871094 392.207031 272.800781 392.296875 C 272.84375 392.296875 272.914062 392.296875 272.980469 392.296875 L 272.980469 392.316406 L 311.972656 392.316406 L 311.972656 420.597656 L 242.957031 420.597656 C 242.730469 418.222656 242.570312 415.871094 242.433594 413.496094 C 242.277344 410.578125 242.207031 407.679688 242.207031 404.832031 C 242.207031 393.695312 243.339844 382.632812 245.5625 371.796875 C 247.78125 361.027344 251.109375 350.460938 255.523438 340.28125 L 274.589844 296.203125 C 274.726562 295.957031 274.792969 295.660156 274.792969 295.367188 C 274.792969 294.4375 274.046875 293.667969 273.09375 293.667969 Z M 487.566406 313.574219 C 483.75 310.945312 479.589844 308.722656 475.109375 306.925781 L 475.109375 290.773438 C 475.109375 290.117188 474.726562 289.527344 474.160156 289.257812 C 463.835938 283.101562 452.71875 278.332031 441.058594 275.117188 C 435.714844 273.652344 430.261719 272.523438 424.730469 271.714844 L 424.730469 266.382812 L 382.910156 266.382812 L 382.910156 272.117188 C 376.882812 273.105469 370.925781 274.515625 365.046875 276.339844 L 362.191406 277.226562 L 362.191406 266.382812 L 355.15625 266.382812 L 361.332031 264.460938 C 368.417969 262.265625 375.621094 260.613281 382.933594 259.503906 C 390.269531 258.394531 397.695312 257.832031 405.167969 257.832031 C 420.15625 257.832031 434.832031 260.09375 448.730469 264.394531 C 462.523438 268.667969 475.609375 274.9375 487.566406 283.011719 Z M 539.222656 456.53125 C 539.488281 458.066406 540.265625 459.421875 541.378906 460.429688 C 540.3125 463.046875 539.179688 465.628906 537.964844 468.160156 C 535.792969 472.660156 533.394531 477.074219 530.742188 481.394531 L 523.816406 492.707031 C 523.609375 493 523.5 493.34375 523.5 493.703125 L 523.5 504.335938 L 482.8125 529.679688 C 471.125 536.960938 458.625 542.484375 445.605469 546.191406 C 432.542969 549.90625 418.960938 551.804688 405.167969 551.804688 C 392.375 551.804688 379.808594 550.175781 367.742188 547.007812 C 363.636719 545.9375 359.585938 544.675781 355.597656 543.253906 L 362.191406 543.253906 L 362.191406 532.363281 C 366.515625 533.8125 370.914062 535.050781 375.394531 536.058594 C 377.878906 536.621094 380.386719 537.113281 382.910156 537.53125 L 382.910156 543.253906 L 424.730469 543.253906 L 424.730469 537.949219 C 430.628906 537.09375 436.453125 535.859375 442.164062 534.222656 C 454.078125 530.832031 465.53125 525.785156 476.222656 519.113281 L 499.332031 504.714844 C 500.574219 506.035156 502.328125 506.871094 504.277344 506.871094 C 508.011719 506.871094 511.070312 503.816406 511.070312 500.085938 C 511.070312 496.351562 508.011719 493.296875 504.277344 493.296875 C 500.539062 493.296875 497.480469 496.351562 497.480469 500.085938 C 497.480469 500.65625 497.558594 501.214844 497.695312 501.746094 L 474.433594 516.238281 C 464.019531 522.730469 452.855469 527.664062 441.238281 530.96875 C 435.832031 532.511719 430.316406 533.683594 424.730469 534.515625 L 424.730469 521.917969 C 429.152344 521.1875 433.519531 520.226562 437.820312 518.996094 C 447.390625 516.273438 456.632812 512.304688 465.339844 507.160156 C 487.652344 503.726562 504.320312 493.578125 514.464844 476.394531 C 518.1875 470.089844 520.660156 463.34375 521.773438 456.53125 Z M 381.328125 365.488281 C 384.246094 364.734375 386.421875 362.089844 386.421875 358.941406 C 386.421875 355.1875 383.363281 352.15625 379.625 352.15625 C 376.476562 352.15625 373.8125 354.316406 373.058594 357.246094 L 362.824219 357.246094 L 362.824219 344.804688 L 393.777344 344.804688 L 393.777344 383.128906 C 389.535156 383.136719 385.320312 383.136719 381.328125 383.132812 Z M 395.476562 341.410156 L 362.824219 341.410156 L 362.824219 334.9375 L 372.5625 334.9375 L 372.5625 334.871094 C 386.695312 334.871094 409.855469 334.84375 424.167969 335.144531 L 424.167969 382.800781 C 417.050781 383.003906 407.1875 383.089844 397.179688 383.121094 L 397.179688 343.109375 C 397.179688 342.15625 396.40625 341.410156 395.476562 341.410156 Z M 403.808594 417.882812 C 411.492188 417.882812 418.273438 418 424.167969 418.222656 L 424.167969 473.902344 C 419.953125 473.980469 415.1875 474.019531 409.832031 474.019531 L 397.179688 474.019531 L 397.179688 417.882812 Z M 427.5625 473.832031 L 427.5625 418.371094 C 432.394531 418.601562 436.546875 418.921875 440.015625 419.324219 L 440.015625 473.261719 C 436.871094 473.515625 432.726562 473.707031 427.5625 473.832031 Z M 432.792969 382.359375 C 431.539062 382.488281 429.757812 382.59375 427.5625 382.679688 L 427.5625 335.226562 C 430.953125 335.324219 433.621094 335.441406 435.191406 335.597656 C 436.878906 335.757812 438.480469 335.996094 440.015625 336.300781 L 440.015625 381.164062 C 437.746094 381.710938 435.332031 382.113281 432.792969 382.359375 Z M 393.777344 417.882812 L 393.777344 474.019531 L 381.328125 474.019531 L 381.328125 417.882812 Z M 377.929688 474.019531 L 362.824219 474.019531 L 362.824219 417.882812 L 377.929688 417.882812 Z M 443.414062 419.78125 C 445.570312 420.117188 447.375 420.492188 448.820312 420.917969 C 451.402344 421.660156 453.746094 422.578125 455.863281 423.65625 L 455.863281 469.273438 C 452.542969 470.925781 448.804688 472.097656 444.609375 472.753906 C 444.25 472.8125 443.84375 472.867188 443.414062 472.925781 Z M 463.019531 464.359375 C 461.851562 465.449219 460.601562 466.441406 459.261719 467.332031 L 459.261719 425.667969 C 466.441406 430.539062 470.152344 437.707031 470.152344 446.527344 C 470.152344 453.996094 467.75 459.875 463.019531 464.359375 Z M 459.261719 366.667969 L 459.261719 350.316406 C 460.199219 352.808594 460.6875 355.589844 460.6875 358.652344 C 460.6875 361.589844 460.191406 364.261719 459.261719 366.667969 Z M 455.863281 372.351562 C 452.875 375.859375 448.617188 378.472656 443.414062 380.195312 L 443.414062 337.117188 C 448.753906 338.660156 452.949219 341.167969 455.863281 344.570312 Z M 455.863281 301.996094 C 448.308594 301.011719 437.941406 300.402344 424.730469 300.183594 L 424.730469 291.171875 C 427.089844 291.574219 429.433594 292.042969 431.75 292.585938 C 440.128906 294.554688 448.210938 297.445312 455.863281 301.179688 Z M 382.910156 300.074219 L 362.191406 300.074219 L 362.191406 297.359375 L 370.773438 294.6875 C 374.773438 293.445312 378.820312 292.441406 382.910156 291.648438 Z M 373.058594 360.644531 C 373.675781 363.011719 375.554688 364.875 377.929688 365.488281 L 377.929688 383.128906 C 371.988281 383.125 366.710938 383.109375 362.824219 383.109375 L 362.824219 360.644531 Z M 362.191406 509.382812 L 382.910156 509.382812 L 382.910156 534.09375 C 380.628906 533.707031 378.363281 533.261719 376.121094 532.753906 C 371.398438 531.691406 366.75 530.363281 362.191406 528.789062 Z M 424.730469 509.109375 C 439.65625 508.890625 450.234375 508.5625 456.445312 508.144531 C 450.140625 511.285156 443.601562 513.832031 436.890625 515.742188 C 432.898438 516.878906 428.839844 517.789062 424.730469 518.484375 Z M 471.714844 305.65625 C 467.785156 304.304688 463.625 303.257812 459.261719 302.519531 L 459.261719 300.140625 C 459.261719 299.417969 458.808594 298.804688 458.171875 298.558594 C 450.023438 294.507812 441.421875 291.382812 432.519531 289.28125 C 429.949219 288.675781 427.351562 288.167969 424.730469 287.730469 L 424.730469 275.144531 C 429.957031 275.929688 435.109375 277.007812 440.152344 278.398438 C 451.246094 281.453125 461.84375 285.933594 471.714844 291.746094 Z M 382.910156 288.195312 C 378.480469 289.03125 374.089844 290.117188 369.757812 291.453125 L 362.191406 293.808594 L 362.191406 280.777344 L 366.066406 279.574219 C 371.585938 277.847656 377.210938 276.503906 382.910156 275.546875 Z M 320.371094 300.074219 L 307.449219 300.074219 L 308.574219 297.472656 L 320.371094 293.800781 Z M 305.945312 334.9375 L 296.054688 357.816406 C 294.898438 360.484375 293.835938 363.21875 292.886719 365.957031 C 292.644531 366.640625 292.414062 367.324219 292.191406 368.007812 C 292.113281 368.003906 292.035156 367.996094 291.953125 367.996094 C 288.21875 367.996094 285.164062 371.027344 285.164062 374.78125 C 285.164062 378.515625 288.21875 381.550781 291.953125 381.550781 C 295.691406 381.550781 298.75 378.515625 298.75 374.78125 C 298.75 372.3125 297.421875 370.164062 295.457031 368.976562 C 295.664062 368.339844 295.855469 367.699219 296.074219 367.070312 C 297.007812 364.398438 298.023438 361.75 299.15625 359.148438 L 309.632812 334.9375 L 311.972656 334.9375 L 311.972656 388.925781 L 274.863281 388.925781 C 275.585938 382.992188 276.695312 377.15625 278.210938 371.410156 C 279.867188 365.097656 281.992188 358.898438 284.621094 352.859375 L 292.371094 334.9375 Z M 475.109375 397.957031 L 475.109375 397.832031 C 479.636719 396.109375 483.804688 393.980469 487.566406 391.519531 L 487.566406 401.933594 C 483.714844 400.386719 479.570312 399.058594 475.109375 397.957031 Z M 568.511719 318.261719 C 567.5625 318.261719 566.8125 319.03125 566.8125 319.960938 L 566.8125 375.644531 C 566.8125 376.570312 567.5625 377.339844 568.511719 377.339844 L 609.359375 377.339844 C 609.421875 377.816406 609.476562 378.292969 609.535156 378.765625 C 609.621094 379.4375 609.703125 380.109375 609.785156 380.785156 C 610.097656 383.515625 610.355469 386.273438 610.570312 389.042969 C 610.589844 389.289062 610.601562 389.539062 610.621094 389.78125 L 554.359375 389.78125 L 554.359375 310.6875 C 556.738281 310.070312 558.613281 308.191406 559.230469 305.820312 L 585.824219 305.820312 C 588.058594 309.886719 590.167969 314.035156 592.132812 318.261719 Z M 409.171875 198.996094 C 409.609375 199.007812 410.042969 199.023438 410.476562 199.035156 C 411.375 199.054688 412.269531 199.078125 413.164062 199.113281 C 413.675781 199.132812 414.183594 199.160156 414.695312 199.183594 C 415.511719 199.21875 416.328125 199.257812 417.144531 199.304688 C 417.679688 199.335938 418.210938 199.371094 418.746094 199.40625 C 419.53125 199.457031 420.320312 199.511719 421.097656 199.574219 C 421.640625 199.613281 422.183594 199.660156 422.726562 199.707031 C 423.503906 199.769531 424.277344 199.839844 425.050781 199.910156 C 425.589844 199.964844 426.128906 200.019531 426.667969 200.074219 C 427.441406 200.15625 428.214844 200.238281 428.984375 200.328125 C 429.511719 200.386719 430.042969 200.453125 430.574219 200.515625 C 431.351562 200.609375 432.132812 200.710938 432.910156 200.816406 C 433.425781 200.882812 433.9375 200.957031 434.445312 201.027344 C 435.246094 201.144531 436.039062 201.261719 436.835938 201.382812 C 437.324219 201.460938 437.808594 201.535156 438.292969 201.613281 C 439.121094 201.746094 439.941406 201.886719 440.765625 202.03125 C 441.21875 202.105469 441.667969 202.183594 442.117188 202.269531 C 442.988281 202.421875 443.855469 202.585938 444.722656 202.757812 C 445.121094 202.835938 445.515625 202.910156 445.914062 202.988281 C 446.863281 203.179688 447.808594 203.378906 448.75 203.582031 C 449.0625 203.652344 449.375 203.710938 449.6875 203.78125 C 450.789062 204.023438 451.890625 204.277344 452.988281 204.539062 C 453.132812 204.574219 453.285156 204.609375 453.4375 204.644531 C 458.539062 205.867188 463.570312 207.285156 468.519531 208.878906 C 468.652344 208.921875 468.785156 208.96875 468.917969 209.011719 C 470.003906 209.367188 471.089844 209.726562 472.167969 210.09375 C 472.371094 210.164062 472.566406 210.234375 472.765625 210.304688 C 473.78125 210.65625 474.789062 211.015625 475.792969 211.382812 C 476.027344 211.464844 476.257812 211.550781 476.492188 211.636719 C 477.460938 211.996094 478.429688 212.359375 479.398438 212.734375 C 479.640625 212.828125 479.886719 212.925781 480.132812 213.019531 C 481.082031 213.390625 482.03125 213.769531 482.976562 214.15625 C 483.222656 214.257812 483.46875 214.359375 483.71875 214.457031 C 484.664062 214.851562 485.601562 215.246094 486.535156 215.648438 C 486.777344 215.75 487.015625 215.851562 487.25 215.957031 C 488.203125 216.371094 489.148438 216.789062 490.089844 217.214844 C 490.308594 217.316406 490.527344 217.414062 490.742188 217.511719 C 491.714844 217.957031 492.683594 218.410156 493.652344 218.867188 C 493.832031 218.953125 494.011719 219.039062 494.1875 219.125 C 495.207031 219.613281 496.226562 220.113281 497.238281 220.617188 C 497.359375 220.679688 497.476562 220.738281 497.597656 220.792969 C 498.71875 221.359375 499.828125 221.929688 500.9375 222.511719 C 500.949219 222.515625 500.957031 222.523438 500.964844 222.527344 C 505.523438 224.925781 509.984375 227.488281 514.335938 230.207031 C 514.441406 230.277344 514.542969 230.34375 514.648438 230.410156 C 515.59375 231 516.53125 231.601562 517.464844 232.210938 C 517.722656 232.375 517.980469 232.546875 518.234375 232.714844 C 519.019531 233.230469 519.800781 233.75 520.578125 234.277344 C 520.898438 234.496094 521.21875 234.714844 521.539062 234.933594 C 522.246094 235.417969 522.945312 235.902344 523.648438 236.394531 C 524 236.644531 524.351562 236.894531 524.703125 237.148438 C 525.382812 237.632812 526.0625 238.121094 526.738281 238.613281 C 527.117188 238.890625 527.492188 239.171875 527.871094 239.449219 C 528.511719 239.929688 529.160156 240.410156 529.796875 240.898438 C 530.183594 241.1875 530.5625 241.480469 530.945312 241.773438 C 531.578125 242.261719 532.203125 242.753906 532.832031 243.25 C 533.207031 243.542969 533.582031 243.839844 533.953125 244.136719 C 534.589844 244.652344 535.226562 245.167969 535.859375 245.691406 C 536.207031 245.972656 536.554688 246.257812 536.902344 246.542969 C 537.578125 247.109375 538.25 247.675781 538.921875 248.25 C 539.210938 248.5 539.503906 248.746094 539.796875 248.996094 C 540.585938 249.679688 541.371094 250.371094 542.152344 251.066406 C 542.3125 251.210938 542.476562 251.351562 542.636719 251.496094 C 545.53125 254.089844 548.355469 256.761719 551.101562 259.515625 C 551.21875 259.632812 551.335938 259.761719 551.457031 259.878906 C 552.242188 260.667969 553.023438 261.46875 553.796875 262.273438 C 553.953125 262.433594 554.105469 262.601562 554.261719 262.761719 C 555 263.539062 555.738281 264.3125 556.460938 265.101562 C 556.621094 265.269531 556.777344 265.441406 556.933594 265.613281 C 557.660156 266.40625 558.382812 267.199219 559.097656 268 C 559.234375 268.164062 559.378906 268.320312 559.519531 268.484375 C 560.257812 269.3125 560.988281 270.152344 561.710938 271 C 561.820312 271.125 561.925781 271.25 562.035156 271.375 C 562.808594 272.28125 563.574219 273.195312 564.332031 274.113281 C 564.382812 274.175781 564.4375 274.242188 564.488281 274.304688 C 571.710938 283.101562 578.210938 292.503906 583.914062 302.429688 L 559.230469 302.429688 C 558.46875 299.507812 555.8125 297.335938 552.660156 297.335938 C 548.929688 297.335938 545.871094 300.390625 545.871094 304.125 C 545.871094 307.269531 548.042969 309.925781 550.964844 310.6875 L 550.964844 391.480469 C 550.964844 392.40625 551.710938 393.175781 552.660156 393.175781 L 610.847656 393.175781 C 610.847656 393.214844 610.851562 393.25 610.855469 393.285156 C 610.859375 393.367188 610.867188 393.449219 610.871094 393.527344 C 610.964844 395.273438 611.03125 397.023438 611.082031 398.785156 C 611.089844 399.046875 611.097656 399.308594 611.101562 399.574219 C 611.144531 401.320312 611.171875 403.070312 611.171875 404.832031 L 611.191406 404.832031 C 611.191406 448.429688 597.605469 488.863281 574.441406 522.160156 L 574.441406 507.550781 C 583.476562 492.753906 590.589844 476.667969 595.5 459.648438 C 600.28125 443.019531 602.949219 425.484375 603.175781 407.339844 C 603.203125 406.410156 602.453125 405.644531 601.5 405.621094 L 543.378906 405.621094 C 542.621094 402.703125 539.960938 400.53125 536.816406 400.53125 C 533.078125 400.53125 530.019531 403.582031 530.019531 407.316406 C 530.019531 411.050781 533.078125 414.105469 536.816406 414.105469 C 539.960938 414.105469 542.621094 411.933594 543.378906 409.015625 L 599.757812 409.015625 C 599.394531 426.210938 596.792969 442.863281 592.242188 458.722656 C 587.371094 475.554688 580.308594 491.484375 571.363281 506.101562 C 571.164062 506.375 571.046875 506.710938 571.046875 507.097656 L 571.046875 526.894531 C 567.140625 532.191406 562.976562 537.277344 558.597656 542.167969 L 558.597656 503.09375 L 560.679688 499.699219 C 567.808594 488.066406 573.5625 475.738281 577.863281 462.976562 C 582.191406 450.148438 585.042969 436.867188 586.421875 423.316406 C 586.511719 422.386719 585.832031 421.570312 584.90625 421.460938 C 584.835938 421.460938 584.792969 421.460938 584.722656 421.460938 L 522.660156 421.460938 L 522.660156 274.144531 L 523.933594 274.144531 C 525.140625 276.054688 527.265625 277.335938 529.679688 277.335938 C 533.414062 277.335938 536.472656 274.28125 536.472656 270.546875 C 536.472656 266.8125 533.414062 263.757812 529.679688 263.757812 C 527.3125 263.757812 525.222656 264.984375 524.003906 266.832031 C 508.40625 253.402344 490.707031 242.75 471.648438 235.296875 C 450.773438 227.105469 428.285156 222.761719 405.167969 222.761719 C 395.953125 222.761719 386.761719 223.460938 377.660156 224.839844 C 368.625 226.199219 359.679688 228.238281 350.917969 230.972656 L 332.554688 236.699219 L 332.554688 212.148438 C 336.644531 210.605469 340.796875 209.179688 345.007812 207.894531 L 345.007812 217.464844 C 345.007812 217.644531 345.03125 217.804688 345.074219 217.988281 C 345.347656 218.867188 346.300781 219.367188 347.203125 219.09375 C 356.441406 216.222656 366 214.003906 375.777344 212.535156 C 385.355469 211.085938 395.183594 210.316406 405.167969 210.316406 C 436.660156 210.316406 466.417969 217.804688 492.726562 231.066406 C 520.078125 244.867188 543.695312 264.890625 561.765625 289.304688 C 562.328125 290.050781 563.394531 290.207031 564.140625 289.640625 C 564.890625 289.097656 565.046875 288.035156 564.484375 287.289062 C 546.117188 262.445312 522.070312 242.058594 494.265625 228.054688 C 467.480469 214.546875 437.207031 206.921875 405.167969 206.921875 C 395 206.921875 385.039062 207.691406 375.28125 209.164062 C 366.109375 210.566406 357.121094 212.578125 348.402344 215.179688 L 348.402344 206.875 C 366.433594 201.722656 385.476562 198.957031 405.167969 198.957031 C 406.507812 198.957031 407.84375 198.972656 409.171875 198.996094 Z M 216.378906 487.34375 L 251.132812 487.34375 L 251.132812 509.878906 L 227.960938 509.878906 C 223.65625 502.640625 219.785156 495.117188 216.378906 487.34375 Z M 230.027344 513.273438 L 252.828125 513.273438 C 253.757812 513.273438 254.527344 512.527344 254.527344 511.574219 L 254.527344 485.648438 C 254.527344 484.695312 253.757812 483.953125 252.828125 483.953125 L 214.921875 483.953125 C 214.542969 483.046875 214.171875 482.144531 213.808594 481.230469 C 213.652344 480.839844 213.488281 480.445312 213.332031 480.046875 C 212.890625 478.925781 212.464844 477.789062 212.039062 476.652344 C 211.878906 476.214844 211.707031 475.777344 211.546875 475.339844 C 211.136719 474.21875 210.75 473.085938 210.355469 471.957031 C 210.304688 471.808594 210.253906 471.65625 210.203125 471.507812 L 266.980469 471.507812 L 266.980469 525.71875 L 238.429688 525.71875 C 235.488281 521.675781 232.675781 517.535156 230.027344 513.273438 Z M 318.207031 591.496094 C 318.183594 591.488281 318.160156 591.480469 318.136719 591.46875 C 313.261719 589.191406 308.484375 586.730469 303.820312 584.089844 C 300.113281 582 296.480469 579.792969 292.925781 577.476562 C 292.753906 577.367188 292.582031 577.253906 292.410156 577.140625 C 290.871094 576.132812 289.351562 575.105469 287.839844 574.058594 C 287.582031 573.878906 287.320312 573.699219 287.0625 573.519531 C 283.71875 571.179688 280.449219 568.746094 277.257812 566.21875 C 276.992188 566.003906 276.730469 565.789062 276.46875 565.578125 C 275.160156 564.535156 273.875 563.480469 272.597656 562.40625 C 272.246094 562.109375 271.894531 561.816406 271.546875 561.515625 C 270.1875 560.359375 268.84375 559.183594 267.511719 557.992188 C 267.367188 557.863281 267.214844 557.730469 267.074219 557.597656 C 265.542969 556.222656 264.039062 554.820312 262.554688 553.398438 C 262.410156 553.261719 262.273438 553.121094 262.128906 552.984375 C 260.832031 551.730469 259.546875 550.453125 258.277344 549.167969 C 257.996094 548.878906 257.71875 548.59375 257.441406 548.308594 C 256.191406 547.027344 254.957031 545.726562 253.742188 544.414062 C 253.601562 544.257812 253.457031 544.105469 253.3125 543.949219 C 250.507812 540.890625 247.792969 537.75 245.175781 534.527344 C 245.042969 534.359375 244.910156 534.195312 244.777344 534.03125 C 243.546875 532.507812 242.335938 530.964844 241.148438 529.410156 C 241.082031 529.320312 241.019531 529.238281 240.957031 529.15625 C 240.945312 529.140625 240.933594 529.128906 240.925781 529.109375 L 268.679688 529.109375 C 269.609375 529.109375 270.378906 528.367188 270.378906 527.414062 L 270.378906 469.808594 C 270.378906 468.859375 269.609375 468.113281 268.679688 468.113281 L 209.078125 468.113281 C 208.972656 467.792969 208.867188 467.472656 208.761719 467.152344 C 208.625 466.707031 208.476562 466.261719 208.335938 465.816406 C 207.964844 464.621094 207.613281 463.417969 207.261719 462.214844 C 207.144531 461.808594 207.023438 461.402344 206.90625 460.996094 C 206.542969 459.71875 206.199219 458.425781 205.859375 457.132812 C 205.773438 456.804688 205.679688 456.46875 205.59375 456.136719 C 205.234375 454.738281 204.898438 453.328125 204.566406 451.917969 C 204.511719 451.6875 204.453125 451.460938 204.402344 451.230469 C 204.039062 449.675781 203.703125 448.117188 203.378906 446.546875 C 203.359375 446.460938 203.339844 446.375 203.320312 446.285156 C 203.007812 444.746094 202.714844 443.199219 202.433594 441.652344 C 202.40625 441.507812 202.378906 441.363281 202.355469 441.21875 C 202.09375 439.765625 201.855469 438.300781 201.628906 436.835938 C 201.589844 436.59375 201.542969 436.351562 201.503906 436.109375 C 201.296875 434.738281 201.109375 433.363281 200.929688 431.984375 C 200.886719 431.644531 200.832031 431.308594 200.789062 430.964844 C 200.628906 429.6875 200.488281 428.398438 200.347656 427.113281 C 200.300781 426.671875 200.246094 426.234375 200.199219 425.789062 C 200.078125 424.585938 199.980469 423.378906 199.878906 422.171875 C 199.832031 421.644531 199.777344 421.117188 199.738281 420.589844 C 199.652344 419.433594 199.589844 418.273438 199.519531 417.109375 C 199.484375 416.527344 199.441406 415.945312 199.410156 415.359375 C 199.347656 414.140625 199.3125 412.910156 199.269531 411.679688 C 199.25 411.15625 199.226562 410.636719 199.210938 410.109375 C 199.167969 408.355469 199.140625 406.59375 199.140625 404.832031 C 199.140625 377.535156 204.46875 351.492188 214.113281 327.660156 C 214.367188 328.296875 214.980469 328.738281 215.695312 328.738281 L 222.304688 328.738281 C 217.507812 340.234375 213.769531 352.269531 211.210938 364.714844 C 208.539062 377.65625 207.136719 391.074219 207.136719 404.832031 C 207.136719 413.3125 207.660156 421.660156 208.699219 429.851562 C 209.742188 438.199219 211.324219 446.390625 213.386719 454.378906 C 213.589844 455.148438 214.269531 455.644531 215.015625 455.644531 L 215.015625 455.667969 L 282.832031 455.667969 L 282.832031 536.691406 C 280.457031 537.308594 278.582031 539.183594 277.964844 541.554688 L 266.03125 541.554688 C 265.101562 541.554688 264.332031 542.324219 264.332031 543.253906 C 264.332031 543.773438 264.558594 544.246094 264.921875 544.542969 C 283.171875 562.847656 305 577.574219 329.226562 587.644531 C 352.617188 597.351562 378.269531 602.714844 405.167969 602.714844 C 424.03125 602.714844 442.300781 600.066406 459.578125 595.132812 C 476.46875 590.335938 492.433594 583.320312 507.148438 574.476562 L 507.148438 583.722656 C 477.082031 600.875 442.265625 610.679688 405.167969 610.679688 C 374.082031 610.679688 344.617188 603.804688 318.207031 591.496094 "/>
</g>
</svg>
