<?xml version="1.0" encoding="UTF-8"?>
<svg xmlns="http://www.w3.org/2000/svg" xmlns:xlink="http://www.w3.org/1999/xlink" width="810pt" height="809.999993pt" viewBox="0 0 810 809.999993" version="1.2">
<defs>
<clipPath id="clip1">
  <path d="M 114.804688 143.308594 L 687.4375 143.308594 L 687.4375 673 L 114.804688 673 Z M 114.804688 143.308594 "/>
</clipPath>
<clipPath id="clip2">
  <path d="M 162.726562 143.308594 L 682.523438 143.308594 L 682.523438 673 L 162.726562 673 Z M 162.726562 143.308594 "/>
</clipPath>
<clipPath id="clip3">
  <path d="M 156.582031 145 L 687.4375 145 L 687.4375 673 L 156.582031 673 Z M 156.582031 145 "/>
</clipPath>
<clipPath id="clip4">
  <path d="M 222 279 L 695.292969 279 L 695.292969 657 L 222 657 Z M 222 279 "/>
</clipPath>
</defs>
<g id="surface1">
<g clip-path="url(#clip1)" clip-rule="nonzero">
<path style=" stroke:none;fill-rule:nonzero;fill:rgb(92.549133%,78.819275%,29.40979%);fill-opacity:1;" d="M 620.957031 557.496094 L 599.652344 525.460938 L 591.429688 525.460938 C 583.09375 536.582031 574.292969 547.308594 565.117188 557.496094 Z M 201.222656 197.132812 C 201.222656 197.621094 201.269531 198.105469 201.335938 198.574219 C 206.625 194.980469 212.105469 191.570312 217.75 188.351562 C 216.058594 187.203125 214.015625 186.53125 211.820312 186.53125 C 205.976562 186.53125 201.222656 191.285156 201.222656 197.132812 Z M 687.183594 576.644531 L 662.484375 576.644531 L 673.667969 673 L 655.722656 673 L 644.535156 576.644531 L 581.273438 576.644531 L 570.089844 673 L 552.140625 673 L 563.332031 576.644531 L 546.769531 576.644531 C 498.921875 623.507812 442.914062 655.09375 388.015625 655.09375 C 363.476562 655.09375 339.171875 650.308594 315.753906 641.699219 L 319.394531 673 L 301.445312 673 L 296.902344 633.847656 C 271.589844 622.082031 247.609375 605.90625 225.847656 586.566406 L 215.8125 673 L 197.871094 673 L 209.054688 576.644531 L 185.710938 576.644531 L 185.710938 557.496094 L 196.894531 557.496094 C 147.207031 501.28125 114.804688 428.242188 114.804688 358.960938 C 114.804688 294.351562 142.984375 244.300781 187.082031 209.085938 C 186.320312 207.511719 185.707031 205.875 185.257812 204.179688 L 177.191406 202.402344 L 177.191406 191.859375 L 185.257812 190.082031 C 185.886719 187.710938 186.824219 185.445312 188.054688 183.328125 L 183.601562 176.367188 L 191.0625 168.910156 L 198.023438 173.363281 C 200.140625 172.128906 202.402344 171.191406 204.773438 170.566406 L 206.546875 162.492188 L 217.09375 162.492188 L 218.863281 170.566406 C 221.234375 171.191406 223.5 172.128906 225.617188 173.363281 L 232.578125 168.910156 L 240.035156 176.367188 L 239.492188 177.21875 C 243.5 175.382812 247.574219 173.632812 251.707031 171.960938 L 251.707031 162.492188 L 278.640625 162.492188 C 300.316406 155.945312 323.191406 151.449219 346.640625 149.03125 C 346.617188 148.828125 346.578125 148.632812 346.578125 148.421875 C 346.578125 145.972656 348.574219 143.980469 351.023438 143.980469 C 353.402344 143.980469 355.332031 145.863281 355.441406 148.214844 C 366.21875 147.347656 377.089844 146.910156 388.015625 146.910156 C 528.324219 146.910156 675.898438 168.113281 675.898438 308.449219 C 675.898438 373.214844 644.457031 452.039062 596.808594 518.152344 L 634.046875 518.152344 L 660.207031 557.496094 L 687.183594 557.496094 Z M 180.242188 152.867188 C 182.691406 152.867188 184.683594 150.875 184.683594 148.421875 C 184.683594 145.972656 182.691406 143.980469 180.242188 143.980469 C 177.789062 143.980469 175.796875 145.972656 175.796875 148.421875 C 175.796875 150.875 177.789062 152.867188 180.242188 152.867188 Z M 521.261719 148.421875 C 521.261719 145.972656 523.261719 143.980469 525.707031 143.980469 C 528.160156 143.980469 530.152344 145.972656 530.152344 148.421875 C 530.152344 150.875 528.160156 152.867188 525.707031 152.867188 C 523.261719 152.867188 521.261719 150.875 521.261719 148.421875 "/>
</g>
<g clip-path="url(#clip2)" clip-rule="nonzero">
<path style=" stroke:none;fill-rule:nonzero;fill:rgb(95.689392%,50.588989%,12.548828%);fill-opacity:1;" d="M 513.535156 151.636719 C 515.3125 151.636719 516.75 150.199219 516.75 148.421875 C 516.75 146.648438 515.3125 145.210938 513.535156 145.210938 C 511.757812 145.210938 510.320312 146.648438 510.320312 148.421875 C 510.320312 150.199219 511.757812 151.636719 513.535156 151.636719 Z M 586.261719 247.867188 L 601.226562 247.867188 L 601.226562 244.179688 L 586.261719 244.179688 Z M 580.453125 198.109375 L 560.058594 185.925781 L 560.058594 210.300781 Z M 631.417969 231.765625 L 509.09375 231.765625 L 509.09375 167.859375 L 631.417969 167.859375 Z M 607.742188 240.078125 L 597.320312 240.078125 L 597.320312 243.765625 L 607.742188 243.765625 Z M 586.261719 240.078125 L 586.261719 243.765625 L 596.683594 243.765625 L 596.683594 240.078125 Z M 607.742188 235.984375 L 586.261719 235.984375 L 586.261719 239.671875 L 607.742188 239.671875 Z M 263.78125 248.074219 L 251.277344 248.074219 L 251.277344 249.300781 L 263.78125 249.300781 Z M 270.292969 245.203125 L 270.292969 243.972656 L 262.335938 243.972656 L 262.335938 245.203125 Z M 259.234375 243.972656 L 251.277344 243.972656 L 251.277344 245.203125 L 259.234375 245.203125 Z M 270.292969 239.878906 L 251.277344 239.878906 L 251.277344 241.105469 L 270.292969 241.105469 Z M 185.320312 248.074219 L 172.816406 248.074219 L 172.816406 249.300781 L 185.320312 249.300781 Z M 191.835938 245.203125 L 191.835938 243.972656 L 183.875 243.972656 L 183.875 245.203125 Z M 180.777344 243.972656 L 172.816406 243.972656 L 172.816406 245.203125 L 180.777344 245.203125 Z M 191.835938 239.878906 L 172.816406 239.878906 L 172.816406 241.105469 L 191.835938 241.105469 Z M 274.808594 209.910156 L 252.9375 209.910156 L 252.9375 217.566406 L 274.808594 217.566406 Z M 274.808594 176.507812 L 252.9375 176.507812 L 252.9375 184.160156 L 274.808594 184.160156 Z M 168.070312 151.636719 C 169.839844 151.636719 171.28125 150.199219 171.28125 148.421875 C 171.28125 146.648438 169.839844 145.210938 168.070312 145.210938 C 166.292969 145.210938 164.855469 146.648438 164.855469 148.421875 C 164.855469 150.199219 166.292969 151.636719 168.070312 151.636719 Z M 193.519531 197.132812 C 193.519531 207.222656 201.730469 215.433594 211.820312 215.433594 C 221.914062 215.433594 230.121094 207.222656 230.121094 197.132812 C 230.121094 187.039062 221.914062 178.824219 211.820312 178.824219 C 201.730469 178.824219 193.519531 187.039062 193.519531 197.132812 Z M 192.292969 197.132812 C 192.292969 186.359375 201.050781 177.597656 211.820312 177.597656 C 222.589844 177.597656 231.351562 186.359375 231.351562 197.132812 C 231.351562 207.898438 222.589844 216.660156 211.820312 216.660156 C 201.050781 216.660156 192.292969 207.898438 192.292969 197.132812 Z M 425.460938 307.390625 C 424.460938 307.390625 423.542969 308.207031 423.417969 309.210938 C 423.289062 310.214844 424.003906 311.027344 425.007812 311.027344 C 426.007812 311.027344 426.925781 310.214844 427.050781 309.210938 C 427.175781 308.207031 426.464844 307.390625 425.460938 307.390625 Z M 477.625 307.976562 L 459.328125 307.976562 C 458.648438 307.976562 458.097656 308.53125 458.097656 309.207031 C 458.097656 309.886719 458.648438 310.433594 459.328125 310.433594 L 477.625 310.433594 C 478.300781 310.433594 478.855469 309.886719 478.855469 309.207031 C 478.855469 308.53125 478.300781 307.976562 477.625 307.976562 Z M 338.847656 152.867188 C 341.296875 152.867188 343.292969 150.875 343.292969 148.421875 C 343.292969 145.972656 341.296875 143.980469 338.847656 143.980469 C 336.402344 143.980469 334.410156 145.972656 334.410156 148.421875 C 334.410156 150.875 336.402344 152.867188 338.847656 152.867188 Z M 371.988281 235.539062 C 371.988281 237.476562 373.566406 239.054688 375.507812 239.054688 L 402.121094 239.054688 C 404.058594 239.054688 405.636719 237.476562 405.636719 235.539062 C 405.636719 233.597656 404.058594 232.023438 402.121094 232.023438 L 375.507812 232.023438 C 373.566406 232.023438 371.988281 233.597656 371.988281 235.539062 Z M 347.652344 217.667969 L 374.269531 217.667969 C 376.207031 217.667969 377.789062 216.09375 377.789062 214.148438 C 377.789062 212.210938 376.207031 210.636719 374.269531 210.636719 L 347.652344 210.636719 C 345.714844 210.636719 344.132812 212.210938 344.132812 214.148438 C 344.132812 216.09375 345.714844 217.667969 347.652344 217.667969 Z M 347.652344 196.28125 L 393.765625 196.28125 C 395.707031 196.28125 397.28125 194.703125 397.28125 192.761719 C 397.28125 190.824219 395.707031 189.246094 393.765625 189.246094 L 347.652344 189.246094 C 345.714844 189.246094 344.132812 190.824219 344.132812 192.761719 C 344.132812 194.703125 345.714844 196.28125 347.652344 196.28125 Z M 402.65625 217.667969 L 412.070312 217.667969 C 414.007812 217.667969 415.582031 216.09375 415.582031 214.148438 C 415.582031 212.210938 414.007812 210.636719 412.070312 210.636719 L 402.65625 210.636719 C 400.71875 210.636719 399.136719 212.210938 399.136719 214.148438 C 399.136719 216.09375 400.71875 217.667969 402.65625 217.667969 Z M 393.0625 217.667969 C 395 217.667969 396.578125 216.09375 396.578125 214.148438 C 396.578125 212.210938 395 210.636719 393.0625 210.636719 L 383.652344 210.636719 C 381.714844 210.636719 380.132812 212.210938 380.132812 214.148438 C 380.132812 216.09375 381.714844 217.667969 383.652344 217.667969 Z M 347.652344 185.589844 L 357.066406 185.589844 C 359.003906 185.589844 360.582031 184.011719 360.582031 182.070312 C 360.582031 180.132812 359.003906 178.550781 357.066406 178.550781 L 347.652344 178.550781 C 345.714844 178.550781 344.132812 180.132812 344.132812 182.070312 C 344.132812 184.011719 345.714844 185.589844 347.652344 185.589844 Z M 347.652344 174.894531 L 379.347656 174.894531 C 381.285156 174.894531 382.867188 173.320312 382.867188 171.378906 C 382.867188 169.441406 381.285156 167.859375 379.347656 167.859375 L 347.652344 167.859375 C 345.714844 167.859375 344.132812 169.441406 344.132812 171.378906 C 344.132812 173.320312 345.714844 174.894531 347.652344 174.894531 Z M 416.101562 639.644531 L 192.441406 639.644531 C 183.230469 639.644531 175.761719 647.109375 175.761719 656.320312 C 175.761719 665.535156 183.230469 673 192.441406 673 L 416.101562 673 C 425.3125 673 432.777344 665.535156 432.777344 656.320312 C 432.777344 647.109375 425.3125 639.644531 416.101562 639.644531 Z M 674.140625 291.1875 C 674.140625 290.511719 673.589844 289.960938 672.914062 289.960938 L 612.496094 289.960938 C 611.8125 289.960938 611.265625 290.511719 611.265625 291.1875 C 611.265625 291.871094 611.8125 292.417969 612.496094 292.417969 L 672.914062 292.417969 C 673.589844 292.417969 674.140625 291.871094 674.140625 291.1875 Z M 645.753906 310.433594 L 656.113281 310.433594 C 656.789062 310.433594 657.34375 309.886719 657.34375 309.207031 C 657.34375 308.53125 656.789062 307.976562 656.113281 307.976562 L 645.753906 307.976562 C 645.078125 307.976562 644.527344 308.53125 644.527344 309.207031 C 644.527344 309.886719 645.078125 310.433594 645.753906 310.433594 Z M 670.113281 317.238281 C 670.113281 316.5625 669.5625 316.007812 668.886719 316.007812 L 644.746094 316.007812 C 644.070312 316.007812 643.515625 316.5625 643.515625 317.238281 C 643.515625 317.914062 644.070312 318.46875 644.746094 318.46875 L 668.886719 318.46875 C 669.5625 318.46875 670.113281 317.914062 670.113281 317.238281 Z M 643.738281 326.5 L 656.132812 326.5 C 656.8125 326.5 657.359375 325.945312 657.359375 325.269531 C 657.359375 324.589844 656.8125 324.039062 656.132812 324.039062 L 643.738281 324.039062 C 643.0625 324.039062 642.507812 324.589844 642.507812 325.269531 C 642.507812 325.945312 643.0625 326.5 643.738281 326.5 Z M 636.476562 377.734375 C 635.792969 377.734375 635.246094 378.28125 635.246094 378.960938 C 635.246094 379.640625 635.792969 380.191406 636.476562 380.191406 L 646.828125 380.191406 C 647.507812 380.191406 648.058594 379.640625 648.058594 378.960938 C 648.058594 378.28125 647.507812 377.734375 646.828125 377.734375 Z M 660.832031 386.988281 C 660.832031 386.3125 660.28125 385.761719 659.601562 385.761719 L 635.464844 385.761719 C 634.785156 385.761719 634.234375 386.3125 634.234375 386.988281 C 634.234375 387.671875 634.785156 388.21875 635.464844 388.21875 L 659.601562 388.21875 C 660.28125 388.21875 660.832031 387.671875 660.832031 386.988281 Z M 648.078125 395.019531 C 648.078125 394.339844 647.53125 393.792969 646.847656 393.792969 L 634.453125 393.792969 C 633.777344 393.792969 633.226562 394.339844 633.226562 395.019531 C 633.226562 395.699219 633.777344 396.25 634.453125 396.25 L 646.847656 396.25 C 647.53125 396.25 648.078125 395.699219 648.078125 395.019531 Z M 621.628906 318.164062 C 621.628906 317.488281 621.082031 316.9375 620.398438 316.9375 L 599.695312 316.9375 C 599.015625 316.9375 598.46875 317.488281 598.46875 318.164062 C 598.46875 318.847656 599.015625 319.394531 599.695312 319.394531 L 620.398438 319.394531 C 621.082031 319.394531 621.628906 318.847656 621.628906 318.164062 Z M 611.261719 334.226562 C 611.261719 333.546875 610.714844 333 610.03125 333 L 591.941406 333 C 591.261719 333 590.710938 333.546875 590.710938 334.226562 C 590.710938 334.90625 591.261719 335.457031 591.941406 335.457031 L 610.03125 335.457031 C 610.714844 335.457031 611.261719 334.90625 611.261719 334.226562 Z M 606.9375 435.09375 C 606.9375 434.417969 606.386719 433.863281 605.707031 433.863281 L 573.132812 433.863281 C 572.457031 433.863281 571.90625 434.417969 571.90625 435.09375 C 571.90625 435.769531 572.457031 436.324219 573.132812 436.324219 L 605.707031 436.324219 C 606.386719 436.324219 606.9375 435.769531 606.9375 435.09375 Z M 514.523438 300.253906 L 424.679688 300.253906 C 421.285156 300.253906 418.191406 303.003906 417.761719 306.398438 L 416.285156 318.164062 L 518.417969 318.164062 L 519.894531 306.398438 C 520.324219 303.003906 517.917969 300.253906 514.523438 300.253906 Z M 504.226562 392.644531 C 504.226562 391.964844 503.675781 391.414062 503 391.414062 L 492.035156 391.414062 C 491.359375 391.414062 490.804688 391.964844 490.804688 392.644531 C 490.804688 393.320312 491.359375 393.875 492.035156 393.875 L 503 393.875 C 503.675781 393.875 504.226562 393.320312 504.226562 392.644531 Z M 477.785156 398.546875 C 477.785156 397.863281 477.230469 397.316406 476.554688 397.316406 L 466.289062 397.316406 C 465.609375 397.316406 465.058594 397.863281 465.058594 398.546875 C 465.058594 399.222656 465.609375 399.773438 466.289062 399.773438 L 476.554688 399.773438 C 477.230469 399.773438 477.785156 399.222656 477.785156 398.546875 Z M 456.535156 392.644531 C 456.535156 391.964844 455.980469 391.414062 455.304688 391.414062 L 444.339844 391.414062 C 443.660156 391.414062 443.113281 391.964844 443.113281 392.644531 C 443.113281 393.320312 443.660156 393.875 444.339844 393.875 L 455.304688 393.875 C 455.980469 393.875 456.535156 393.320312 456.535156 392.644531 Z M 426.675781 440.140625 L 417.316406 440.140625 C 416.023438 440.140625 414.847656 441.1875 414.6875 442.476562 C 414.527344 443.765625 415.441406 444.8125 416.730469 444.8125 L 426.089844 444.8125 C 427.378906 444.8125 428.558594 443.765625 428.722656 442.476562 C 428.878906 441.1875 427.96875 440.140625 426.675781 440.140625 Z M 417.066406 424.136719 C 418.070312 424.136719 418.980469 423.320312 419.113281 422.320312 C 419.238281 421.316406 418.527344 420.5 417.523438 420.5 C 416.519531 420.5 415.601562 421.316406 415.476562 422.320312 C 415.347656 423.320312 416.0625 424.136719 417.066406 424.136719 Z M 415.992188 398.546875 C 415.992188 399.222656 416.539062 399.773438 417.21875 399.773438 L 424.761719 399.773438 C 425.4375 399.773438 425.992188 399.222656 425.992188 398.546875 C 425.992188 397.863281 425.4375 397.316406 424.761719 397.316406 L 417.21875 397.316406 C 416.539062 397.316406 415.992188 397.863281 415.992188 398.546875 Z M 464.238281 334.226562 C 464.238281 333.546875 463.691406 333 463.007812 333 L 439.800781 333 C 439.125 333 438.570312 333.546875 438.570312 334.226562 C 438.570312 334.90625 439.125 335.457031 439.800781 335.457031 L 463.007812 335.457031 C 463.691406 335.457031 464.238281 334.90625 464.238281 334.226562 Z M 542.867188 467.210938 C 542.867188 467.894531 543.414062 468.441406 544.097656 468.441406 L 591.085938 468.441406 C 591.765625 468.441406 592.316406 467.894531 592.316406 467.210938 C 592.316406 466.535156 591.765625 465.980469 591.085938 465.980469 L 544.097656 465.980469 C 543.414062 465.980469 542.867188 466.535156 542.867188 467.210938 Z M 553.523438 382.40625 C 553.523438 383.082031 554.078125 383.632812 554.753906 383.632812 L 567.148438 383.632812 C 567.824219 383.632812 568.375 383.082031 568.375 382.40625 C 568.375 381.722656 567.824219 381.175781 567.148438 381.175781 L 554.753906 381.175781 C 554.078125 381.175781 553.523438 381.722656 553.523438 382.40625 Z M 557.5625 350.289062 C 557.5625 350.964844 558.113281 351.515625 558.789062 351.515625 L 573.722656 351.515625 C 574.40625 351.515625 574.953125 350.964844 574.953125 350.289062 C 574.953125 349.605469 574.40625 349.058594 573.722656 349.058594 L 558.789062 349.058594 C 558.113281 349.058594 557.5625 349.605469 557.5625 350.289062 Z M 560.585938 326.195312 C 560.585938 326.875 561.136719 327.425781 561.816406 327.425781 L 572.167969 327.425781 C 572.851562 327.425781 573.398438 326.875 573.398438 326.195312 C 573.398438 325.519531 572.851562 324.96875 572.167969 324.96875 L 561.816406 324.96875 C 561.136719 324.96875 560.585938 325.519531 560.585938 326.195312 Z M 601.734375 350.289062 C 601.734375 349.605469 601.179688 349.058594 600.503906 349.058594 L 579.09375 349.058594 C 578.417969 349.058594 577.867188 349.605469 577.867188 350.289062 C 577.867188 350.964844 578.417969 351.515625 579.09375 351.515625 L 600.503906 351.515625 C 601.179688 351.515625 601.734375 350.964844 601.734375 350.289062 Z M 604.988281 375.601562 C 605.667969 375.601562 606.214844 375.054688 606.214844 374.371094 C 606.214844 373.695312 605.667969 373.144531 604.988281 373.144531 L 586.894531 373.144531 C 586.21875 373.144531 585.667969 373.695312 585.667969 374.371094 C 585.667969 375.054688 586.21875 375.601562 586.894531 375.601562 Z M 681.980469 295.289062 L 662.949219 466.992188 C 662.386719 472.058594 658.109375 475.886719 653.007812 475.886719 L 386.480469 475.886719 C 383.59375 475.886719 380.949219 474.707031 379.03125 472.558594 C 378.648438 472.132812 378.320312 471.675781 378.023438 471.207031 C 375.253906 490.875 361.992188 513.070312 361.992188 530.375 C 361.992188 549.382812 376.476562 576.644531 376.476562 576.644531 C 376.476562 576.644531 371.335938 619.207031 319.148438 619.207031 C 300.285156 619.207031 286.96875 615.898438 280.121094 613.660156 C 276.5625 612.5 273.941406 609.507812 273.140625 605.855469 C 267.074219 578.3125 271.1875 539.210938 275.464844 525.460938 C 278.359375 516.164062 274.953125 468.558594 263.792969 434.625 C 258.097656 417.3125 270.988281 399.496094 289.210938 399.496094 L 293.527344 385.761719 C 293.527344 385.761719 307.25 379.125 321.75 382.074219 C 336.253906 385.027344 343.179688 389.011719 348.582031 389.769531 L 345.078125 399.574219 C 351.058594 400.097656 356.40625 403.65625 359.144531 409.085938 C 365.042969 420.8125 374.425781 440.949219 377.503906 456.082031 L 395.570312 293.085938 C 396.132812 288.011719 400.40625 284.183594 405.511719 284.183594 L 672.039062 284.183594 C 674.917969 284.183594 677.570312 285.371094 679.488281 287.515625 C 681.414062 289.664062 682.296875 292.421875 681.980469 295.289062 Z M 432.339844 307.390625 C 431.34375 307.390625 430.425781 308.207031 430.296875 309.210938 C 430.171875 310.214844 430.882812 311.027344 431.886719 311.027344 C 432.886719 311.027344 433.804688 310.214844 433.929688 309.210938 C 434.058594 308.207031 433.347656 307.390625 432.339844 307.390625 Z M 439.222656 307.390625 C 438.222656 307.390625 437.304688 308.207031 437.179688 309.210938 C 437.054688 310.214844 437.765625 311.027344 438.769531 311.027344 C 439.769531 311.027344 440.6875 310.214844 440.8125 309.210938 C 440.9375 308.207031 440.226562 307.390625 439.222656 307.390625 Z M 250.886719 301.78125 L 236.253906 301.78125 L 236.253906 333.691406 L 250.886719 333.691406 Z M 199.554688 333.691406 L 214.183594 333.691406 L 214.183594 306.199219 L 199.554688 306.199219 Z M 177.484375 333.691406 L 162.851562 333.691406 L 162.851562 315.789062 L 177.484375 315.789062 L 177.484375 333.691406 "/>
</g>
<path style=" stroke:none;fill-rule:nonzero;fill:rgb(100%,100%,100%);fill-opacity:1;" d="M 211.820312 208.960938 C 218.351562 208.960938 223.644531 203.664062 223.644531 197.132812 C 223.644531 190.597656 218.351562 185.300781 211.820312 185.300781 C 205.289062 185.300781 199.996094 190.597656 199.996094 197.132812 C 199.996094 203.664062 205.289062 208.960938 211.820312 208.960938 Z M 177.027344 148.421875 C 177.027344 150.199219 178.46875 151.636719 180.242188 151.636719 C 182.019531 151.636719 183.453125 150.199219 183.453125 148.421875 C 183.453125 146.648438 182.019531 145.210938 180.242188 145.210938 C 178.46875 145.210938 177.027344 146.648438 177.027344 148.421875 Z M 185.171875 176.539062 L 189.503906 183.308594 C 188.023438 185.6875 186.925781 188.316406 186.265625 191.121094 L 178.417969 192.84375 L 178.417969 201.414062 L 186.265625 203.140625 C 186.925781 205.945312 188.023438 208.574219 189.503906 210.953125 L 185.171875 217.722656 L 191.230469 223.78125 L 198.003906 219.453125 C 200.378906 220.929688 203.003906 222.027344 205.808594 222.6875 L 207.535156 230.535156 L 216.105469 230.535156 L 217.832031 222.6875 C 220.632812 222.027344 223.261719 220.929688 225.636719 219.453125 L 232.410156 223.78125 L 238.46875 217.722656 L 234.140625 210.953125 C 235.613281 208.574219 236.714844 205.945312 237.375 203.140625 L 245.222656 201.414062 L 245.222656 192.84375 L 237.375 191.121094 C 236.714844 188.316406 235.613281 185.6875 234.140625 183.308594 L 238.46875 176.539062 L 232.410156 170.476562 L 225.636719 174.808594 C 223.261719 173.332031 220.632812 172.230469 217.832031 171.574219 L 216.105469 163.722656 L 207.535156 163.722656 L 205.808594 171.574219 C 203.003906 172.230469 200.378906 173.332031 198.003906 174.808594 L 191.230469 170.476562 Z M 252.9375 204.785156 L 286.359375 204.785156 L 286.359375 197.132812 L 252.9375 197.132812 Z M 252.9375 171.378906 L 286.359375 171.378906 L 286.359375 163.722656 L 252.9375 163.722656 Z M 217.988281 239.878906 L 198.96875 239.878906 L 198.96875 241.105469 L 217.988281 241.105469 Z M 217.988281 243.972656 L 210.027344 243.972656 L 210.027344 245.203125 L 217.988281 245.203125 Z M 206.925781 245.203125 L 206.925781 243.972656 L 198.96875 243.972656 L 198.96875 245.203125 Z M 211.476562 248.074219 L 198.96875 248.074219 L 198.96875 249.300781 L 211.476562 249.300781 Z M 301.078125 232.636719 L 323.304688 232.636719 L 323.304688 198.726562 L 301.078125 198.726562 Z M 301.078125 197.496094 L 323.304688 197.496094 L 323.304688 163.585938 L 301.078125 163.585938 Z M 335.636719 235.539062 C 335.636719 236.804688 336.660156 237.828125 337.921875 237.828125 L 338.136719 237.828125 C 339.40625 237.828125 340.429688 236.804688 340.429688 235.539062 C 340.429688 234.273438 339.40625 233.253906 338.136719 233.253906 L 337.921875 233.253906 C 336.660156 233.253906 335.636719 234.273438 335.636719 235.539062 Z M 335.636719 224.847656 C 335.636719 226.109375 336.660156 227.136719 337.921875 227.136719 L 338.136719 227.136719 C 339.40625 227.136719 340.429688 226.109375 340.429688 224.847656 C 340.429688 223.582031 339.40625 222.554688 338.136719 222.554688 L 337.921875 222.554688 C 336.660156 222.554688 335.636719 223.582031 335.636719 224.847656 Z M 335.636719 214.15625 C 335.636719 215.417969 336.660156 216.441406 337.921875 216.441406 L 338.136719 216.441406 C 339.40625 216.441406 340.429688 215.417969 340.429688 214.15625 C 340.429688 212.886719 339.40625 211.863281 338.136719 211.863281 L 337.921875 211.863281 C 336.660156 211.863281 335.636719 212.886719 335.636719 214.15625 Z M 335.636719 203.457031 C 335.636719 204.722656 336.660156 205.75 337.921875 205.75 L 338.136719 205.75 C 339.40625 205.75 340.429688 204.722656 340.429688 203.457031 C 340.429688 202.195312 339.40625 201.167969 338.136719 201.167969 L 337.921875 201.167969 C 336.660156 201.167969 335.636719 202.195312 335.636719 203.457031 Z M 335.636719 192.761719 C 335.636719 194.03125 336.660156 195.050781 337.921875 195.050781 L 338.136719 195.050781 C 339.40625 195.050781 340.429688 194.03125 340.429688 192.761719 C 340.429688 191.5 339.40625 190.476562 338.136719 190.476562 L 337.921875 190.476562 C 336.660156 190.476562 335.636719 191.5 335.636719 192.761719 Z M 335.636719 182.070312 C 335.636719 183.332031 336.660156 184.359375 337.921875 184.359375 L 338.136719 184.359375 C 339.40625 184.359375 340.429688 183.332031 340.429688 182.070312 C 340.429688 180.808594 339.40625 179.78125 338.136719 179.78125 L 337.921875 179.78125 C 336.660156 179.78125 335.636719 180.808594 335.636719 182.070312 Z M 335.636719 171.378906 C 335.636719 172.640625 336.660156 173.664062 337.921875 173.664062 L 338.136719 173.664062 C 339.40625 173.664062 340.429688 172.640625 340.429688 171.378906 C 340.429688 170.113281 339.40625 169.089844 338.136719 169.089844 L 337.921875 169.089844 C 336.660156 169.089844 335.636719 170.113281 335.636719 171.378906 Z M 335.636719 160.683594 C 335.636719 161.945312 336.660156 162.972656 337.921875 162.972656 L 338.136719 162.972656 C 339.40625 162.972656 340.429688 161.945312 340.429688 160.683594 C 340.429688 159.421875 339.40625 158.394531 338.136719 158.394531 L 337.921875 158.394531 C 336.660156 158.394531 335.636719 159.421875 335.636719 160.683594 Z M 335.636719 148.421875 C 335.636719 150.199219 337.074219 151.636719 338.847656 151.636719 C 340.625 151.636719 342.066406 150.199219 342.066406 148.421875 C 342.066406 146.648438 340.625 145.210938 338.847656 145.210938 C 337.074219 145.210938 335.636719 146.648438 335.636719 148.421875 Z M 345.363281 235.539062 C 345.363281 236.804688 346.390625 237.828125 347.652344 237.828125 L 367.058594 237.828125 C 368.320312 237.828125 369.347656 236.804688 369.347656 235.539062 C 369.347656 234.273438 368.320312 233.253906 367.058594 233.253906 L 347.652344 233.253906 C 346.390625 233.253906 345.363281 234.273438 345.363281 235.539062 Z M 345.363281 224.847656 C 345.363281 226.109375 346.390625 227.136719 347.652344 227.136719 L 389.179688 227.136719 C 390.441406 227.136719 391.46875 226.109375 391.46875 224.847656 C 391.46875 223.582031 390.441406 222.554688 389.179688 222.554688 L 347.652344 222.554688 C 346.390625 222.554688 345.363281 223.582031 345.363281 224.847656 Z M 345.363281 214.15625 C 345.363281 215.417969 346.390625 216.441406 347.652344 216.441406 L 374.269531 216.441406 C 375.53125 216.441406 376.558594 215.417969 376.558594 214.15625 C 376.558594 212.886719 375.53125 211.863281 374.269531 211.863281 L 347.652344 211.863281 C 346.390625 211.863281 345.363281 212.886719 345.363281 214.15625 Z M 345.363281 203.457031 C 345.363281 204.722656 346.390625 205.75 347.652344 205.75 L 382.789062 205.75 C 384.050781 205.75 385.074219 204.722656 385.074219 203.457031 C 385.074219 202.195312 384.050781 201.167969 382.789062 201.167969 L 347.652344 201.167969 C 346.390625 201.167969 345.363281 202.195312 345.363281 203.457031 Z M 345.363281 192.761719 C 345.363281 194.03125 346.390625 195.050781 347.652344 195.050781 L 393.765625 195.050781 C 395.03125 195.050781 396.050781 194.03125 396.050781 192.761719 C 396.050781 191.5 395.03125 190.476562 393.765625 190.476562 L 347.652344 190.476562 C 346.390625 190.476562 345.363281 191.5 345.363281 192.761719 Z M 345.363281 182.070312 C 345.363281 183.332031 346.390625 184.359375 347.652344 184.359375 L 357.066406 184.359375 C 358.328125 184.359375 359.355469 183.332031 359.355469 182.070312 C 359.355469 180.808594 358.328125 179.78125 357.066406 179.78125 L 347.652344 179.78125 C 346.390625 179.78125 345.363281 180.808594 345.363281 182.070312 Z M 345.363281 171.378906 C 345.363281 172.640625 346.390625 173.664062 347.652344 173.664062 L 379.347656 173.664062 C 380.609375 173.664062 381.636719 172.640625 381.636719 171.378906 C 381.636719 170.113281 380.609375 169.089844 379.347656 169.089844 L 347.652344 169.089844 C 346.390625 169.089844 345.363281 170.113281 345.363281 171.378906 Z M 345.363281 160.683594 C 345.363281 161.945312 346.390625 162.972656 347.652344 162.972656 L 362.207031 162.972656 C 363.46875 162.972656 364.492188 161.945312 364.492188 160.683594 C 364.492188 159.421875 363.46875 158.394531 362.207031 158.394531 L 347.652344 158.394531 C 346.390625 158.394531 345.363281 159.421875 345.363281 160.683594 Z M 347.804688 148.421875 C 347.804688 150.199219 349.246094 151.636719 351.023438 151.636719 C 352.796875 151.636719 354.238281 150.199219 354.238281 148.421875 C 354.238281 146.648438 352.796875 145.210938 351.023438 145.210938 C 349.246094 145.210938 347.804688 146.648438 347.804688 148.421875 Z M 414.523438 179.78125 L 368.40625 179.78125 C 367.144531 179.78125 366.125 180.808594 366.125 182.070312 C 366.125 183.332031 367.144531 184.359375 368.40625 184.359375 L 414.523438 184.359375 C 415.785156 184.359375 416.8125 183.332031 416.8125 182.070312 C 416.8125 180.808594 415.785156 179.78125 414.523438 179.78125 Z M 415.503906 192.761719 C 415.503906 191.5 414.480469 190.476562 413.21875 190.476562 L 403.804688 190.476562 C 402.542969 190.476562 401.515625 191.5 401.515625 192.761719 C 401.515625 194.03125 402.542969 195.050781 403.804688 195.050781 L 413.21875 195.050781 C 414.480469 195.050781 415.503906 194.03125 415.503906 192.761719 Z M 414.355469 214.15625 C 414.355469 212.886719 413.332031 211.863281 412.070312 211.863281 L 402.65625 211.863281 C 401.394531 211.863281 400.367188 212.886719 400.367188 214.15625 C 400.367188 215.417969 401.394531 216.441406 402.65625 216.441406 L 412.070312 216.441406 C 413.332031 216.441406 414.355469 215.417969 414.355469 214.15625 Z M 395.351562 214.15625 C 395.351562 212.886719 394.328125 211.863281 393.0625 211.863281 L 383.648438 211.863281 C 382.386719 211.863281 381.363281 212.886719 381.363281 214.15625 C 381.363281 215.417969 382.386719 216.441406 383.648438 216.441406 L 393.0625 216.441406 C 394.328125 216.441406 395.351562 215.417969 395.351562 214.15625 Z M 404.410156 235.539062 C 404.410156 234.273438 403.386719 233.253906 402.121094 233.253906 L 375.507812 233.253906 C 374.238281 233.253906 373.21875 234.273438 373.21875 235.539062 C 373.21875 236.804688 374.238281 237.828125 375.507812 237.828125 L 402.121094 237.828125 C 403.386719 237.828125 404.410156 236.804688 404.410156 235.539062 Z M 467.394531 232.636719 L 496.488281 232.636719 L 496.488281 198.726562 L 467.394531 198.726562 Z M 467.394531 197.496094 L 496.488281 197.496094 L 496.488281 163.585938 L 467.394531 163.585938 Z M 510.320312 230.535156 L 630.1875 230.535156 L 630.1875 169.089844 L 510.320312 169.089844 Z M 522.492188 148.421875 C 522.492188 150.199219 523.933594 151.636719 525.707031 151.636719 C 527.484375 151.636719 528.925781 150.199219 528.925781 148.421875 C 528.925781 146.648438 527.484375 145.210938 525.707031 145.210938 C 523.933594 145.210938 522.492188 146.648438 522.492188 148.421875 Z M 606.511719 237.214844 L 587.492188 237.214844 L 587.492188 238.441406 L 606.511719 238.441406 Z M 606.511719 241.308594 L 598.550781 241.308594 L 598.550781 242.539062 L 606.511719 242.539062 Z M 595.453125 242.539062 L 595.453125 241.308594 L 587.492188 241.308594 L 587.492188 242.539062 Z M 600 245.40625 L 587.492188 245.40625 L 587.492188 246.636719 L 600 246.636719 Z M 567.191406 237.214844 L 548.167969 237.214844 L 548.167969 238.441406 L 567.191406 238.441406 Z M 567.191406 241.308594 L 559.226562 241.308594 L 559.226562 242.539062 L 567.191406 242.539062 Z M 556.132812 242.539062 L 556.132812 241.308594 L 548.167969 241.308594 L 548.167969 242.539062 Z M 560.675781 245.40625 L 548.167969 245.40625 L 548.167969 246.636719 L 560.675781 246.636719 Z M 156.988281 257.453125 L 156.988281 143.308594 C 156.988281 139.914062 159.738281 137.164062 163.128906 137.164062 L 294.933594 137.164062 C 298.328125 137.164062 301.078125 139.914062 301.078125 143.308594 L 301.078125 162.359375 L 323.304688 162.359375 L 323.304688 143.308594 C 323.304688 139.914062 326.054688 137.164062 329.449219 137.164062 L 461.253906 137.164062 C 464.644531 137.164062 467.394531 139.914062 467.394531 143.308594 L 467.394531 162.359375 L 496.488281 162.359375 L 496.488281 143.308594 C 496.488281 139.914062 499.238281 137.164062 502.632812 137.164062 L 634.429688 137.164062 C 637.828125 137.164062 640.574219 139.914062 640.574219 143.308594 L 640.574219 232.636719 L 656.453125 232.636719 C 656.703125 233.042969 656.933594 233.457031 657.175781 233.867188 L 640.574219 233.867188 L 640.574219 257.453125 C 640.574219 260.847656 637.828125 263.597656 634.429688 263.597656 L 502.632812 263.597656 C 499.238281 263.597656 496.488281 260.847656 496.488281 257.453125 L 496.488281 233.867188 L 467.394531 233.867188 L 467.394531 244.667969 C 467.394531 248.0625 464.644531 250.8125 461.253906 250.8125 L 329.449219 250.8125 C 326.054688 250.8125 323.304688 248.0625 323.304688 244.667969 L 323.304688 233.867188 L 301.078125 233.867188 L 301.078125 257.453125 C 301.078125 260.847656 298.328125 263.597656 294.933594 263.597656 L 163.128906 263.597656 C 159.738281 263.597656 156.988281 260.847656 156.988281 257.453125 Z M 580.050781 289.960938 C 579.375 289.960938 578.820312 290.511719 578.820312 291.1875 C 578.820312 291.871094 579.375 292.417969 580.050781 292.417969 L 604.871094 292.417969 C 605.554688 292.417969 606.101562 291.871094 606.101562 291.1875 C 606.101562 290.511719 605.554688 289.960938 604.871094 289.960938 Z M 606.9375 435.09375 C 606.9375 434.417969 606.386719 433.863281 605.707031 433.863281 L 573.132812 433.863281 C 572.457031 433.863281 571.90625 434.417969 571.90625 435.09375 C 571.90625 435.769531 572.457031 436.324219 573.132812 436.324219 L 605.707031 436.324219 C 606.386719 436.324219 606.9375 435.769531 606.9375 435.09375 Z M 593.324219 459.183594 C 593.324219 458.503906 592.773438 457.957031 592.09375 457.957031 L 545.105469 457.957031 C 544.429688 457.957031 543.875 458.503906 543.875 459.183594 C 543.875 459.859375 544.429688 460.414062 545.105469 460.414062 L 592.09375 460.414062 C 592.773438 460.414062 593.324219 459.859375 593.324219 459.183594 Z M 592.316406 467.210938 C 592.316406 466.535156 591.765625 465.980469 591.085938 465.980469 L 544.097656 465.980469 C 543.414062 465.980469 542.867188 466.535156 542.867188 467.210938 C 542.867188 467.894531 543.414062 468.441406 544.097656 468.441406 L 591.085938 468.441406 C 591.765625 468.441406 592.316406 467.894531 592.316406 467.210938 Z M 545.894531 443.121094 C 545.894531 443.800781 546.445312 444.351562 547.121094 444.351562 L 585.09375 444.351562 C 585.773438 444.351562 586.324219 443.800781 586.324219 443.121094 C 586.324219 442.445312 585.773438 441.890625 585.09375 441.890625 L 547.121094 441.890625 C 546.445312 441.890625 545.894531 442.445312 545.894531 443.121094 Z M 546.90625 435.09375 C 546.90625 435.769531 547.453125 436.324219 548.132812 436.324219 L 564.421875 436.324219 C 565.097656 436.324219 565.648438 435.769531 565.648438 435.09375 C 565.648438 434.417969 565.097656 433.863281 564.421875 433.863281 L 548.132812 433.863281 C 547.453125 433.863281 546.90625 434.417969 546.90625 435.09375 Z M 547.914062 427.066406 C 547.914062 427.742188 548.460938 428.296875 549.140625 428.296875 L 596.128906 428.296875 C 596.8125 428.296875 597.359375 427.742188 597.359375 427.066406 C 597.359375 426.386719 596.8125 425.835938 596.128906 425.835938 L 549.140625 425.835938 C 548.460938 425.835938 547.914062 426.386719 547.914062 427.066406 Z M 538.871094 427.066406 C 538.871094 426.386719 538.316406 425.835938 537.640625 425.835938 L 529.449219 425.835938 C 528.769531 425.835938 528.21875 426.386719 528.21875 427.066406 C 528.21875 427.742188 528.769531 428.296875 529.449219 428.296875 L 537.640625 428.296875 C 538.316406 428.296875 538.871094 427.742188 538.871094 427.066406 Z M 537.855469 435.09375 C 537.855469 434.417969 537.308594 433.863281 536.628906 433.863281 L 528.4375 433.863281 C 527.757812 433.863281 527.210938 434.417969 527.210938 435.09375 C 527.210938 435.769531 527.757812 436.324219 528.4375 436.324219 L 536.628906 436.324219 C 537.308594 436.324219 537.855469 435.769531 537.855469 435.09375 Z M 536.847656 443.121094 C 536.847656 442.445312 536.300781 441.890625 535.621094 441.890625 L 527.425781 441.890625 C 526.75 441.890625 526.199219 442.445312 526.199219 443.121094 C 526.199219 443.800781 526.75 444.351562 527.425781 444.351562 L 535.621094 444.351562 C 536.300781 444.351562 536.847656 443.800781 536.847656 443.121094 Z M 534.832031 459.183594 C 534.832031 458.503906 534.28125 457.957031 533.605469 457.957031 L 525.410156 457.957031 C 524.734375 457.957031 524.179688 458.503906 524.179688 459.183594 C 524.179688 459.859375 524.734375 460.414062 525.410156 460.414062 L 533.605469 460.414062 C 534.28125 460.414062 534.832031 459.859375 534.832031 459.183594 Z M 533.824219 467.210938 C 533.824219 466.535156 533.273438 465.980469 532.597656 465.980469 L 524.402344 465.980469 C 523.722656 465.980469 523.171875 466.535156 523.171875 467.210938 C 523.171875 467.894531 523.722656 468.441406 524.402344 468.441406 L 532.597656 468.441406 C 533.273438 468.441406 533.824219 467.894531 533.824219 467.210938 Z M 623.1875 422.125 L 616.429688 475.886719 L 601.679688 475.886719 C 601.804688 475.699219 601.890625 475.484375 601.890625 475.242188 C 601.890625 474.5625 601.34375 474.015625 600.660156 474.015625 L 568.089844 474.015625 C 567.410156 474.015625 566.859375 474.5625 566.859375 475.242188 C 566.859375 475.484375 566.945312 475.699219 567.070312 475.886719 L 560.394531 475.886719 C 560.515625 475.699219 560.605469 475.484375 560.605469 475.242188 C 560.605469 474.5625 560.054688 474.015625 559.375 474.015625 L 543.085938 474.015625 C 542.40625 474.015625 541.855469 474.5625 541.855469 475.242188 C 541.855469 475.484375 541.945312 475.699219 542.066406 475.886719 L 532.601562 475.886719 C 532.726562 475.699219 532.8125 475.484375 532.8125 475.242188 C 532.8125 474.5625 532.265625 474.015625 531.582031 474.015625 L 523.394531 474.015625 C 522.710938 474.015625 522.164062 474.5625 522.164062 475.242188 C 522.164062 475.484375 522.253906 475.699219 522.375 475.886719 L 514.296875 475.886719 L 521.058594 422.125 C 521.484375 418.734375 524.578125 415.980469 527.972656 415.980469 L 617.816406 415.980469 C 621.207031 415.980469 623.617188 418.734375 623.1875 422.125 Z M 448.746094 440.140625 L 439.386719 440.140625 C 438.097656 440.140625 436.921875 441.1875 436.761719 442.476562 C 436.597656 443.765625 437.511719 444.8125 438.800781 444.8125 L 448.160156 444.8125 C 449.453125 444.8125 450.628906 443.765625 450.792969 442.476562 C 450.949219 441.1875 450.039062 440.140625 448.746094 440.140625 Z M 426.675781 440.140625 L 417.316406 440.140625 C 416.023438 440.140625 414.847656 441.1875 414.6875 442.476562 C 414.527344 443.765625 415.441406 444.8125 416.730469 444.8125 L 426.089844 444.8125 C 427.378906 444.8125 428.558594 443.765625 428.722656 442.476562 C 428.878906 441.1875 427.96875 440.140625 426.675781 440.140625 Z M 410.640625 420.5 C 409.636719 420.5 408.71875 421.316406 408.59375 422.320312 C 408.46875 423.320312 409.179688 424.136719 410.183594 424.136719 C 411.1875 424.136719 412.105469 423.320312 412.226562 422.320312 C 412.359375 421.316406 411.644531 420.5 410.640625 420.5 Z M 417.066406 424.136719 C 418.070312 424.136719 418.980469 423.320312 419.113281 422.320312 C 419.238281 421.316406 418.527344 420.5 417.523438 420.5 C 416.519531 420.5 415.601562 421.316406 415.476562 422.320312 C 415.347656 423.320312 416.0625 424.136719 417.066406 424.136719 Z M 423.945312 424.136719 C 424.949219 424.136719 425.867188 423.320312 425.992188 422.320312 C 426.121094 421.316406 425.410156 420.5 424.402344 420.5 C 423.398438 420.5 422.484375 421.316406 422.355469 422.320312 C 422.230469 423.320312 422.941406 424.136719 423.945312 424.136719 Z M 443.082031 431.78125 L 424.769531 431.78125 C 424.09375 431.78125 423.542969 432.332031 423.542969 433.011719 C 423.542969 433.691406 424.09375 434.238281 424.769531 434.238281 L 443.082031 434.238281 C 443.765625 434.238281 444.3125 433.691406 444.3125 433.011719 C 444.3125 432.332031 443.765625 431.78125 443.082031 431.78125 Z M 461.683594 415.96875 C 465.078125 415.96875 467.488281 418.722656 467.058594 422.113281 L 464.484375 442.597656 C 464.058594 445.992188 460.960938 448.742188 457.570312 448.742188 L 405.386719 448.742188 C 401.996094 448.742188 399.589844 445.992188 400.015625 442.597656 L 402.589844 422.113281 C 403.015625 418.722656 406.113281 415.96875 409.507812 415.96875 Z M 433.929688 309.210938 C 434.058594 308.207031 433.347656 307.390625 432.339844 307.390625 C 431.34375 307.390625 430.425781 308.207031 430.296875 309.210938 C 430.171875 310.214844 430.882812 311.027344 431.886719 311.027344 C 432.886719 311.027344 433.804688 310.214844 433.929688 309.210938 Z M 498.804688 398.546875 C 498.804688 397.863281 498.25 397.316406 497.574219 397.316406 L 491.296875 397.316406 C 490.613281 397.316406 490.066406 397.863281 490.066406 398.546875 C 490.066406 399.222656 490.613281 399.773438 491.296875 399.773438 L 497.574219 399.773438 C 498.25 399.773438 498.804688 399.222656 498.804688 398.546875 Z M 489.796875 335.457031 C 490.476562 335.457031 491.027344 334.90625 491.027344 334.226562 C 491.027344 333.546875 490.476562 333 489.796875 333 L 471.503906 333 C 470.828125 333 470.277344 333.546875 470.277344 334.226562 C 470.277344 334.90625 470.828125 335.457031 471.503906 335.457031 Z M 486.238281 344.988281 L 441.726562 344.988281 C 439.914062 344.988281 438.265625 346.457031 438.039062 348.265625 L 436.691406 358.972656 C 436.464844 360.777344 437.746094 362.246094 439.554688 362.246094 L 484.066406 362.246094 C 485.875 362.246094 487.527344 360.777344 487.753906 358.972656 L 489.097656 348.265625 C 489.328125 346.457031 488.042969 344.988281 486.238281 344.988281 Z M 467.03125 393.875 L 473.308594 393.875 C 473.988281 393.875 474.539062 393.320312 474.539062 392.644531 C 474.539062 391.964844 473.988281 391.414062 473.308594 391.414062 L 467.03125 391.414062 C 466.351562 391.414062 465.800781 391.964844 465.800781 392.644531 C 465.800781 393.320312 466.351562 393.875 467.03125 393.875 Z M 477.785156 398.546875 C 477.785156 397.863281 477.230469 397.316406 476.554688 397.316406 L 466.289062 397.316406 C 465.609375 397.316406 465.058594 397.863281 465.058594 398.546875 C 465.058594 399.222656 465.609375 399.773438 466.289062 399.773438 L 476.554688 399.773438 C 477.230469 399.773438 477.785156 399.222656 477.785156 398.546875 Z M 456.535156 392.644531 C 456.535156 391.964844 455.980469 391.414062 455.304688 391.414062 L 444.339844 391.414062 C 443.660156 391.414062 443.113281 391.964844 443.113281 392.644531 C 443.113281 393.320312 443.660156 393.875 444.339844 393.875 L 455.304688 393.875 C 455.980469 393.875 456.535156 393.320312 456.535156 392.644531 Z M 451.109375 398.546875 C 451.109375 397.863281 450.558594 397.316406 449.878906 397.316406 L 443.597656 397.316406 C 442.921875 397.316406 442.367188 397.863281 442.367188 398.546875 C 442.367188 399.222656 442.921875 399.773438 443.597656 399.773438 L 449.878906 399.773438 C 450.558594 399.773438 451.109375 399.222656 451.109375 398.546875 Z M 431.746094 392.644531 C 431.746094 391.964844 431.199219 391.414062 430.515625 391.414062 L 417.960938 391.414062 C 417.28125 391.414062 416.730469 391.964844 416.730469 392.644531 C 416.730469 393.320312 417.28125 393.875 417.960938 393.875 L 430.515625 393.875 C 431.199219 393.875 431.746094 393.320312 431.746094 392.644531 Z M 425.992188 398.546875 C 425.992188 397.863281 425.4375 397.316406 424.761719 397.316406 L 417.21875 397.316406 C 416.539062 397.316406 415.992188 397.863281 415.992188 398.546875 C 415.992188 399.222656 416.539062 399.773438 417.21875 399.773438 L 424.761719 399.773438 C 425.4375 399.773438 425.992188 399.222656 425.992188 398.546875 Z M 438.570312 334.226562 C 438.570312 334.90625 439.125 335.457031 439.800781 335.457031 L 463.007812 335.457031 C 463.691406 335.457031 464.238281 334.90625 464.238281 334.226562 C 464.238281 333.546875 463.691406 333 463.007812 333 L 439.800781 333 C 439.125 333 438.570312 333.546875 438.570312 334.226562 Z M 490.804688 392.644531 C 490.804688 393.320312 491.359375 393.875 492.035156 393.875 L 503 393.875 C 503.675781 393.875 504.226562 393.320312 504.226562 392.644531 C 504.226562 391.964844 503.675781 391.414062 503 391.414062 L 492.035156 391.414062 C 491.359375 391.414062 490.804688 391.964844 490.804688 392.644531 Z M 501.113281 406.984375 L 411.269531 406.984375 C 407.875 406.984375 405.46875 404.234375 405.898438 400.839844 L 416.285156 318.164062 L 518.417969 318.164062 L 519.894531 306.398438 L 508.023438 400.839844 C 507.601562 404.234375 504.507812 406.984375 501.113281 406.984375 Z M 638.6875 467.179688 L 626.289062 467.179688 C 625.613281 467.179688 625.0625 467.730469 625.0625 468.40625 C 625.0625 469.082031 625.613281 469.636719 626.289062 469.636719 L 638.6875 469.636719 C 639.367188 469.636719 639.917969 469.082031 639.917969 468.40625 C 639.917969 467.730469 639.367188 467.179688 638.6875 467.179688 Z M 644.746094 459.144531 L 627.300781 459.144531 C 626.621094 459.144531 626.074219 459.699219 626.074219 460.375 C 626.074219 461.058594 626.621094 461.605469 627.300781 461.605469 L 644.746094 461.605469 C 645.429688 461.605469 645.976562 461.058594 645.976562 460.375 C 645.976562 459.699219 645.429688 459.144531 644.746094 459.144531 Z M 628.3125 453.578125 L 638.664062 453.578125 C 639.339844 453.578125 639.894531 453.023438 639.894531 452.347656 C 639.894531 451.671875 639.339844 451.117188 638.664062 451.117188 L 628.3125 451.117188 C 627.628906 451.117188 627.082031 451.671875 627.082031 452.347656 C 627.082031 453.023438 627.628906 453.578125 628.3125 453.578125 Z M 650.757812 360.417969 L 638.363281 360.417969 C 637.679688 360.417969 637.132812 360.96875 637.132812 361.644531 C 637.132812 362.328125 637.679688 362.875 638.363281 362.875 L 650.757812 362.875 C 651.433594 362.875 651.984375 362.328125 651.984375 361.644531 C 651.984375 360.96875 651.433594 360.417969 650.757812 360.417969 Z M 656.8125 352.390625 L 639.371094 352.390625 C 638.6875 352.390625 638.140625 352.9375 638.140625 353.617188 C 638.140625 354.296875 638.6875 354.847656 639.371094 354.847656 L 656.8125 354.847656 C 657.496094 354.847656 658.042969 354.296875 658.042969 353.617188 C 658.042969 352.9375 657.496094 352.390625 656.8125 352.390625 Z M 640.378906 344.359375 C 639.703125 344.359375 639.148438 344.910156 639.148438 345.585938 C 639.148438 346.269531 639.703125 346.816406 640.378906 346.816406 L 650.730469 346.816406 C 651.414062 346.816406 651.960938 346.269531 651.960938 345.585938 C 651.960938 344.910156 651.414062 344.359375 650.730469 344.359375 Z M 621.628906 318.164062 C 621.628906 317.488281 621.082031 316.9375 620.398438 316.9375 L 599.695312 316.9375 C 599.015625 316.9375 598.46875 317.488281 598.46875 318.164062 C 598.46875 318.847656 599.015625 319.394531 599.695312 319.394531 L 620.398438 319.394531 C 621.082031 319.394531 621.628906 318.847656 621.628906 318.164062 Z M 611.261719 334.226562 C 611.261719 333.546875 610.714844 333 610.03125 333 L 591.941406 333 C 591.261719 333 590.710938 333.546875 590.710938 334.226562 C 590.710938 334.90625 591.261719 335.457031 591.941406 335.457031 L 610.03125 335.457031 C 610.714844 335.457031 611.261719 334.90625 611.261719 334.226562 Z M 606.214844 374.371094 C 606.214844 373.695312 605.667969 373.144531 604.988281 373.144531 L 586.894531 373.144531 C 586.21875 373.144531 585.667969 373.695312 585.667969 374.371094 C 585.667969 375.054688 586.21875 375.601562 586.894531 375.601562 L 604.988281 375.601562 C 605.667969 375.601562 606.214844 375.054688 606.214844 374.371094 Z M 597.234375 382.40625 C 597.234375 381.722656 596.6875 381.175781 596.007812 381.175781 L 574.144531 381.175781 C 573.464844 381.175781 572.917969 381.722656 572.917969 382.40625 C 572.917969 383.082031 573.464844 383.632812 574.144531 383.632812 L 596.007812 383.632812 C 596.6875 383.632812 597.234375 383.082031 597.234375 382.40625 Z M 584.84375 390.433594 C 584.84375 389.753906 584.292969 389.203125 583.617188 389.203125 L 553.746094 389.203125 C 553.0625 389.203125 552.515625 389.753906 552.515625 390.433594 C 552.515625 391.113281 553.0625 391.660156 553.746094 391.660156 L 583.617188 391.660156 C 584.292969 391.660156 584.84375 391.113281 584.84375 390.433594 Z M 552.550781 318.164062 C 552.550781 317.488281 552.003906 316.9375 551.320312 316.9375 L 543.132812 316.9375 C 542.457031 316.9375 541.902344 317.488281 541.902344 318.164062 C 541.902344 318.847656 542.457031 319.394531 543.132812 319.394531 L 551.320312 319.394531 C 552.003906 319.394531 552.550781 318.847656 552.550781 318.164062 Z M 551.542969 326.195312 C 551.542969 325.519531 550.996094 324.96875 550.3125 324.96875 L 542.125 324.96875 C 541.441406 324.96875 540.894531 325.519531 540.894531 326.195312 C 540.894531 326.875 541.441406 327.425781 542.125 327.425781 L 550.3125 327.425781 C 550.996094 327.425781 551.542969 326.875 551.542969 326.195312 Z M 550.535156 334.226562 C 550.535156 333.546875 549.988281 333 549.304688 333 L 541.117188 333 C 540.433594 333 539.886719 333.546875 539.886719 334.226562 C 539.886719 334.90625 540.433594 335.457031 541.117188 335.457031 L 549.304688 335.457031 C 549.988281 335.457031 550.535156 334.90625 550.535156 334.226562 Z M 549.527344 342.253906 C 549.527344 341.578125 548.972656 341.027344 548.296875 341.027344 L 540.105469 341.027344 C 539.425781 341.027344 538.875 341.578125 538.875 342.253906 C 538.875 342.933594 539.425781 343.484375 540.105469 343.484375 L 548.296875 343.484375 C 548.972656 343.484375 549.527344 342.933594 549.527344 342.253906 Z M 548.519531 350.289062 C 548.519531 349.605469 547.964844 349.058594 547.289062 349.058594 L 539.09375 349.058594 C 538.417969 349.058594 537.867188 349.605469 537.867188 350.289062 C 537.867188 350.964844 538.417969 351.515625 539.09375 351.515625 L 547.289062 351.515625 C 547.964844 351.515625 548.519531 350.964844 548.519531 350.289062 Z M 546.496094 366.347656 C 546.496094 365.664062 545.949219 365.117188 545.269531 365.117188 L 537.078125 365.117188 C 536.398438 365.117188 535.851562 365.664062 535.851562 366.347656 C 535.851562 367.023438 536.398438 367.574219 537.078125 367.574219 L 545.269531 367.574219 C 545.949219 367.574219 546.496094 367.023438 546.496094 366.347656 Z M 545.488281 374.371094 C 545.488281 373.695312 544.9375 373.144531 544.261719 373.144531 L 536.066406 373.144531 C 535.390625 373.144531 534.839844 373.695312 534.839844 374.371094 C 534.839844 375.054688 535.390625 375.601562 536.066406 375.601562 L 544.261719 375.601562 C 544.9375 375.601562 545.488281 375.054688 545.488281 374.371094 Z M 544.480469 382.40625 C 544.480469 381.722656 543.929688 381.175781 543.253906 381.175781 L 535.058594 381.175781 C 534.382812 381.175781 533.828125 381.722656 533.828125 382.40625 C 533.828125 383.082031 534.382812 383.632812 535.058594 383.632812 L 543.253906 383.632812 C 543.929688 383.632812 544.480469 383.082031 544.480469 382.40625 Z M 543.472656 390.433594 C 543.472656 389.753906 542.921875 389.203125 542.246094 389.203125 L 534.050781 389.203125 C 533.375 389.203125 532.820312 389.753906 532.820312 390.433594 C 532.820312 391.113281 533.375 391.660156 534.050781 391.660156 L 542.246094 391.660156 C 542.921875 391.660156 543.472656 391.113281 543.472656 390.433594 Z M 553.523438 382.40625 C 553.523438 383.082031 554.078125 383.632812 554.753906 383.632812 L 567.148438 383.632812 C 567.824219 383.632812 568.375 383.082031 568.375 382.40625 C 568.375 381.722656 567.824219 381.175781 567.148438 381.175781 L 554.753906 381.175781 C 554.078125 381.175781 553.523438 381.722656 553.523438 382.40625 Z M 554.53125 374.371094 C 554.53125 375.054688 555.085938 375.601562 555.761719 375.601562 L 579.902344 375.601562 C 580.578125 375.601562 581.128906 375.054688 581.128906 374.371094 C 581.128906 373.695312 580.578125 373.144531 579.902344 373.144531 L 555.761719 373.144531 C 555.085938 373.144531 554.53125 373.695312 554.53125 374.371094 Z M 555.539062 366.347656 C 555.539062 367.023438 556.09375 367.574219 556.769531 367.574219 L 567.125 367.574219 C 567.804688 367.574219 568.351562 367.023438 568.351562 366.347656 C 568.351562 365.664062 567.804688 365.117188 567.125 365.117188 L 556.769531 365.117188 C 556.09375 365.117188 555.539062 365.664062 555.539062 366.347656 Z M 557.5625 350.289062 C 557.5625 350.964844 558.113281 351.515625 558.789062 351.515625 L 573.722656 351.515625 C 574.40625 351.515625 574.953125 350.964844 574.953125 350.289062 C 574.953125 349.605469 574.40625 349.058594 573.722656 349.058594 L 558.789062 349.058594 C 558.113281 349.058594 557.5625 349.605469 557.5625 350.289062 Z M 558.570312 342.253906 C 558.570312 342.933594 559.121094 343.484375 559.796875 343.484375 L 572.191406 343.484375 C 572.875 343.484375 573.421875 342.933594 573.421875 342.253906 C 573.421875 341.578125 572.875 341.027344 572.191406 341.027344 L 559.796875 341.027344 C 559.121094 341.027344 558.570312 341.578125 558.570312 342.253906 Z M 559.578125 334.226562 C 559.578125 334.90625 560.128906 335.457031 560.804688 335.457031 L 584.945312 335.457031 C 585.625 335.457031 586.175781 334.90625 586.175781 334.226562 C 586.175781 333.546875 585.625 333 584.945312 333 L 560.804688 333 C 560.128906 333 559.578125 333.546875 559.578125 334.226562 Z M 560.585938 326.195312 C 560.585938 326.875 561.136719 327.425781 561.816406 327.425781 L 572.167969 327.425781 C 572.851562 327.425781 573.398438 326.875 573.398438 326.195312 C 573.398438 325.519531 572.851562 324.96875 572.167969 324.96875 L 561.816406 324.96875 C 561.136719 324.96875 560.585938 325.519531 560.585938 326.195312 Z M 561.597656 318.164062 C 561.597656 318.847656 562.144531 319.394531 562.828125 319.394531 L 592.699219 319.394531 C 593.375 319.394531 593.925781 318.847656 593.925781 318.164062 C 593.925781 317.488281 593.375 316.9375 592.699219 316.9375 L 562.828125 316.9375 C 562.144531 316.9375 561.597656 317.488281 561.597656 318.164062 Z M 598.414062 327.425781 C 599.097656 327.425781 599.644531 326.875 599.644531 326.195312 C 599.644531 325.519531 599.097656 324.96875 598.414062 324.96875 L 577.707031 324.96875 C 577.03125 324.96875 576.480469 325.519531 576.480469 326.195312 C 576.480469 326.875 577.03125 327.425781 577.707031 327.425781 Z M 588.628906 342.253906 C 588.628906 341.578125 588.074219 341.027344 587.398438 341.027344 L 579.191406 341.027344 C 578.507812 341.027344 577.960938 341.578125 577.960938 342.253906 C 577.960938 342.933594 578.507812 343.484375 579.191406 343.484375 L 587.398438 343.484375 C 588.074219 343.484375 588.628906 342.933594 588.628906 342.253906 Z M 593.371094 365.117188 L 572.664062 365.117188 C 571.984375 365.117188 571.433594 365.664062 571.433594 366.347656 C 571.433594 367.023438 571.984375 367.574219 572.664062 367.574219 L 593.371094 367.574219 C 594.050781 367.574219 594.597656 367.023438 594.597656 366.347656 C 594.597656 365.664062 594.050781 365.117188 593.371094 365.117188 Z M 600.503906 351.515625 C 601.179688 351.515625 601.734375 350.964844 601.734375 350.289062 C 601.734375 349.605469 601.179688 349.058594 600.503906 349.058594 L 579.09375 349.058594 C 578.417969 349.058594 577.867188 349.605469 577.867188 350.289062 C 577.867188 350.964844 578.417969 351.515625 579.09375 351.515625 Z M 625.863281 400.839844 C 625.433594 404.234375 622.339844 406.984375 618.945312 406.984375 L 529.101562 406.984375 C 525.707031 406.984375 523.304688 404.234375 523.730469 400.839844 L 535.601562 306.398438 C 536.023438 303.003906 539.125 300.253906 542.511719 300.253906 L 632.355469 300.253906 C 635.75 300.253906 638.15625 303.003906 637.734375 306.398438 Z M 304.675781 338.054688 L 303.535156 328.625 C 302.429688 319.46875 305.128906 310.820312 310.308594 304.140625 L 259.972656 304.140625 L 259.972656 337.914062 C 259.972656 337.964844 259.957031 338.007812 259.957031 338.054688 Z M 249.65625 303.007812 L 237.484375 303.007812 L 237.484375 332.460938 L 249.65625 332.460938 Z M 231.308594 304.140625 L 231.308594 299.320312 L 219.132812 299.320312 L 219.132812 332.460938 L 231.308594 332.460938 Z M 212.957031 307.429688 L 200.78125 307.429688 L 200.78125 332.460938 L 212.957031 332.460938 Z M 194.605469 322.226562 L 182.433594 322.226562 L 182.433594 332.460938 L 194.605469 332.460938 Z M 176.253906 317.015625 L 164.082031 317.015625 L 164.082031 332.460938 L 176.253906 332.460938 Z M 300.640625 374.421875 L 115.351562 374.421875 C 115.320312 374.011719 115.289062 373.601562 115.265625 373.191406 L 300.984375 373.191406 L 304.355469 361.320312 C 305.804688 356.203125 306.222656 350.855469 305.585938 345.574219 L 304.824219 339.285156 L 259.804688 339.285156 C 259.179688 342.015625 256.746094 344.058594 253.828125 344.058594 L 163.128906 344.058594 C 160.207031 344.058594 157.773438 342.015625 157.148438 339.285156 L 115.710938 339.285156 C 115.75 338.871094 115.796875 338.460938 115.839844 338.054688 L 157 338.054688 C 157 338.007812 156.988281 337.964844 156.988281 337.914062 L 156.988281 304.140625 L 122.257812 304.140625 C 122.371094 303.730469 122.503906 303.324219 122.621094 302.914062 L 156.988281 302.914062 L 156.988281 290.328125 C 156.988281 286.933594 159.738281 284.183594 163.128906 284.183594 L 253.828125 284.183594 C 257.21875 284.183594 259.972656 286.933594 259.972656 290.328125 L 259.972656 302.914062 L 311.3125 302.914062 C 317.40625 295.777344 326.464844 291.1875 336.710938 291.1875 C 346.828125 291.1875 355.972656 295.707031 362.128906 302.914062 L 394.480469 302.914062 L 394.347656 304.140625 L 363.132812 304.140625 C 366.84375 308.929688 369.296875 314.765625 369.953125 321.183594 L 370.289062 324.433594 L 377.289062 338.054688 L 390.589844 338.054688 L 390.449219 339.285156 L 377.738281 339.285156 C 377.769531 340.0625 377.285156 340.816406 376.472656 341.050781 L 373.726562 341.855469 C 372.925781 342.085938 372.402344 342.847656 372.464844 343.675781 C 372.886719 349.144531 374.117188 368.644531 370.289062 370.703125 C 365.835938 373.105469 344.566406 368.804688 344.566406 368.804688 C 344.164062 370.253906 343.832031 371.71875 343.554688 373.191406 L 386.691406 373.191406 L 386.558594 374.421875 L 343.34375 374.421875 C 342.589844 378.980469 342.402344 383.613281 342.792969 388.214844 C 338.027344 386.585938 331.660156 384.089844 321.75 382.074219 C 312.257812 380.144531 303.101562 382.324219 297.910156 384.054688 Z M 272.773438 473.386719 C 271.261719 463.835938 269.269531 453.984375 266.78125 444.699219 L 266.785156 444.699219 C 266.742188 444.535156 266.699219 444.378906 266.65625 444.21875 C 265.761719 440.9375 264.8125 437.71875 263.792969 434.625 C 260.390625 424.273438 263.625 413.753906 270.671875 406.957031 C 270.332031 407.109375 269.984375 407.246094 269.648438 407.414062 C 269.074219 407.699219 268.527344 408.011719 267.984375 408.328125 L 120.03125 408.328125 C 120.117188 408.742188 120.199219 409.148438 120.285156 409.558594 L 266.09375 409.558594 C 255.464844 417.1875 252.039062 431.796875 258.609375 443.472656 L 129.703125 443.472656 C 129.84375 443.878906 129.972656 444.292969 130.117188 444.699219 L 259.296875 444.699219 Z M 388.015625 655.09375 C 393.03125 655.09375 398.058594 654.816406 403.089844 654.304688 L 370.941406 654.304688 C 376.617188 654.808594 382.308594 655.09375 388.015625 655.09375 Z M 319.148438 619.207031 C 317.957031 619.207031 316.796875 619.191406 315.65625 619.167969 L 269.597656 619.167969 C 270.273438 619.582031 270.957031 619.984375 271.632812 620.394531 L 492.601562 620.394531 C 493.234375 619.988281 493.863281 619.574219 494.492188 619.167969 L 320.648438 619.167969 C 320.144531 619.171875 319.664062 619.207031 319.148438 619.207031 Z M 270.367188 584.023438 L 223.011719 584.023438 C 223.464844 584.4375 223.914062 584.847656 224.367188 585.253906 L 270.4375 585.253906 C 270.414062 584.847656 270.390625 584.4375 270.367188 584.023438 Z M 374.171875 585.253906 L 537.703125 585.253906 C 538.144531 584.847656 538.585938 584.4375 539.027344 584.023438 L 374.609375 584.023438 C 374.46875 584.429688 374.328125 584.832031 374.171875 585.253906 Z M 271.335938 548.886719 L 189.507812 548.886719 C 189.851562 549.300781 190.203125 549.703125 190.550781 550.117188 L 271.210938 550.117188 C 271.25 549.703125 271.292969 549.296875 271.335938 548.886719 Z M 276.4375 513.746094 L 163.890625 513.746094 C 164.152344 514.160156 164.417969 514.566406 164.679688 514.976562 L 276.4375 514.976562 C 276.4375 514.578125 276.4375 514.167969 276.4375 513.746094 Z M 465.785156 531.375 C 468.664062 531.839844 471.496094 532.285156 474.238281 532.703125 L 473.925781 532.21875 L 466.632812 530.671875 Z M 530.019531 548.886719 L 548.511719 548.886719 L 542.660156 544.808594 L 532.199219 547.199219 Z M 388.121094 478.609375 L 622.496094 478.609375 C 622.257812 479.015625 622.023438 479.429688 621.78125 479.835938 L 388.746094 479.835938 C 396.53125 494.921875 403.667969 507.460938 407.976562 513.746094 L 599.941406 513.746094 C 599.652344 514.160156 599.367188 514.566406 599.078125 514.976562 L 408.839844 514.976562 C 409.957031 516.53125 410.835938 517.546875 411.40625 517.925781 C 415.972656 520.972656 427.257812 524.023438 440.4375 526.761719 L 461.347656 518.867188 C 463.484375 518.066406 465.875 518.339844 467.769531 519.609375 L 478.101562 526.511719 L 482.410156 533.921875 C 490.476562 535.089844 497.105469 535.964844 500.796875 536.433594 L 512.242188 536.003906 L 536.796875 527.519531 C 539 526.761719 541.4375 527.105469 543.339844 528.460938 L 553.6875 535.804688 L 560.804688 548.886719 L 572.671875 548.886719 C 572.320312 549.296875 571.972656 549.707031 571.621094 550.117188 L 561.472656 550.117188 L 561.714844 550.558594 C 562.167969 551.398438 561.824219 552.449219 560.957031 552.847656 C 559.222656 552.730469 557.238281 551.863281 555.628906 550.660156 L 556.042969 553.488281 C 556.238281 554.777344 555.179688 555.921875 553.878906 555.824219 C 551.847656 555.679688 550.179688 554.171875 549.828125 552.167969 L 549.46875 550.117188 L 528.429688 550.117188 L 523.398438 554.011719 C 521.027344 555.839844 518.269531 557.0625 515.355469 557.597656 C 513.457031 557.941406 511.503906 557.882812 509.59375 557.625 L 497.984375 556.023438 L 411.546875 555.40625 C 401.109375 554.96875 393.425781 552.988281 387.578125 550.117188 L 365.53125 550.117188 C 365.46875 549.921875 365.414062 549.722656 365.355469 549.523438 L 365.351562 549.523438 C 365.300781 549.359375 365.253906 549.195312 365.207031 549.027344 C 365.191406 548.984375 365.175781 548.9375 365.164062 548.886719 L 365.167969 548.886719 C 363.320312 542.617188 361.992188 536.117188 361.992188 530.375 C 361.992188 527.105469 362.476562 523.660156 363.261719 520.085938 C 363.464844 520.125 363.671875 520.164062 363.875 520.203125 L 350.910156 495.171875 C 350.230469 495.316406 349.535156 495.390625 348.824219 495.390625 C 342.371094 495.390625 336.007812 489.34375 331.226562 479.835938 L 144.832031 479.835938 C 144.636719 479.429688 144.429688 479.019531 144.226562 478.609375 L 330.625 478.609375 C 327.117188 471.207031 324.539062 461.898438 323.550781 451.773438 C 322.757812 443.652344 323.089844 436.058594 324.3125 429.550781 C 324.21875 421.035156 326.511719 413.605469 332.859375 410.648438 C 333.367188 410.40625 333.878906 410.21875 334.390625 410.023438 C 336.203125 408.808594 338.183594 408.152344 340.304688 408.152344 C 341.167969 408.152344 342.027344 408.273438 342.882812 408.476562 C 351.390625 408.671875 358.960938 414.105469 362.546875 423.125 C 369.71875 441.167969 379.289062 461.441406 388.113281 478.609375 Z M 378.765625 444.699219 L 378.902344 443.472656 L 373.984375 443.472656 C 374.125 443.878906 374.265625 444.292969 374.398438 444.699219 Z M 382.796875 408.328125 L 358.730469 408.328125 C 358.871094 408.582031 359.015625 408.832031 359.144531 409.085938 C 359.21875 409.242188 359.300781 409.40625 359.378906 409.558594 L 382.664062 409.558594 Z M 671.105469 267.773438 L 137.148438 267.773438 C 136.925781 268.183594 136.710938 268.597656 136.496094 269.003906 L 671.402344 269.003906 C 671.300781 268.597656 671.203125 268.183594 671.105469 267.773438 "/>
<g clip-path="url(#clip3)" clip-rule="nonzero">
<path style=" stroke:none;fill-rule:nonzero;fill:rgb(22.349548%,22.749329%,24.708557%);fill-opacity:1;" d="M 537.34375 517.539062 L 502.730469 517.644531 L 485.425781 517.703125 L 468.121094 517.875 L 468.121094 518.429688 L 485.425781 518.597656 L 502.730469 518.65625 L 537.34375 518.761719 L 571.953125 518.632812 L 589.261719 518.566406 L 606.566406 518.386719 L 606.566406 517.917969 L 589.261719 517.738281 L 571.953125 517.667969 Z M 522.828125 245.40625 L 510.324219 245.40625 L 510.324219 246.636719 L 522.828125 246.636719 Z M 529.339844 242.539062 L 529.339844 241.308594 L 521.382812 241.308594 L 521.382812 242.539062 Z M 518.28125 241.308594 L 510.324219 241.308594 L 510.324219 242.539062 L 518.28125 242.539062 Z M 529.339844 237.214844 L 510.324219 237.214844 L 510.324219 238.441406 L 529.339844 238.441406 Z M 537.882812 151.636719 C 539.65625 151.636719 541.097656 150.199219 541.097656 148.421875 C 541.097656 146.648438 539.65625 145.210938 537.882812 145.210938 C 536.105469 145.210938 534.667969 146.648438 534.667969 148.421875 C 534.667969 150.199219 536.105469 151.636719 537.882812 151.636719 Z M 363.195312 151.636719 C 364.972656 151.636719 366.410156 150.199219 366.410156 148.421875 C 366.410156 146.648438 364.972656 145.210938 363.195312 145.210938 C 361.417969 145.210938 359.980469 146.648438 359.980469 148.421875 C 359.980469 150.199219 361.417969 151.636719 363.195312 151.636719 Z M 237.628906 248.074219 L 225.121094 248.074219 L 225.121094 249.300781 L 237.628906 249.300781 Z M 244.140625 245.203125 L 244.140625 243.972656 L 236.179688 243.972656 L 236.179688 245.203125 Z M 233.082031 243.972656 L 225.121094 243.972656 L 225.121094 245.203125 L 233.082031 245.203125 Z M 244.140625 239.878906 L 225.121094 239.878906 L 225.121094 241.105469 L 244.140625 241.105469 Z M 192.417969 151.636719 C 194.1875 151.636719 195.628906 150.199219 195.628906 148.421875 C 195.628906 146.648438 194.1875 145.210938 192.417969 145.210938 C 190.640625 145.210938 189.199219 146.648438 189.199219 148.421875 C 189.199219 150.199219 190.640625 151.636719 192.417969 151.636719 Z M 169.554688 338.363281 L 170.78125 338.363281 L 170.78125 337.050781 L 187.902344 337.050781 L 187.902344 338.363281 L 189.132812 338.363281 L 189.132812 337.050781 L 206.253906 337.050781 L 206.253906 338.363281 L 207.484375 338.363281 L 207.484375 337.050781 L 224.605469 337.050781 L 224.605469 338.363281 L 225.835938 338.363281 L 225.835938 337.050781 L 242.957031 337.050781 L 242.957031 338.363281 L 244.1875 338.363281 L 244.1875 337.050781 L 249.777344 337.050781 L 249.777344 335.820312 L 244.1875 335.820312 L 244.1875 334.511719 L 242.957031 334.511719 L 242.957031 335.820312 L 225.835938 335.820312 L 225.835938 334.511719 L 224.605469 334.511719 L 224.605469 335.820312 L 207.484375 335.820312 L 207.484375 334.511719 L 206.253906 334.511719 L 206.253906 335.820312 L 189.132812 335.820312 L 189.132812 334.511719 L 187.902344 334.511719 L 187.902344 335.820312 L 170.78125 335.820312 L 170.78125 334.511719 L 169.554688 334.511719 L 169.554688 335.820312 L 164.082031 335.820312 L 164.082031 337.050781 L 169.554688 337.050781 Z M 568.496094 291.1875 C 568.496094 290.511719 567.945312 289.960938 567.265625 289.960938 L 408.507812 289.960938 C 407.828125 289.960938 407.28125 290.511719 407.28125 291.1875 C 407.28125 291.871094 407.828125 292.417969 408.507812 292.417969 L 567.265625 292.417969 C 567.945312 292.417969 568.496094 291.871094 568.496094 291.1875 Z M 532.597656 465.980469 L 524.402344 465.980469 C 523.722656 465.980469 523.171875 466.535156 523.171875 467.210938 C 523.171875 467.894531 523.722656 468.441406 524.402344 468.441406 L 532.597656 468.441406 C 533.273438 468.441406 533.824219 467.894531 533.824219 467.210938 C 533.824219 466.535156 533.273438 465.980469 532.597656 465.980469 Z M 534.832031 459.183594 C 534.832031 458.503906 534.28125 457.957031 533.605469 457.957031 L 525.410156 457.957031 C 524.734375 457.957031 524.179688 458.503906 524.179688 459.183594 C 524.179688 459.859375 524.734375 460.414062 525.410156 460.414062 L 533.605469 460.414062 C 534.28125 460.414062 534.832031 459.859375 534.832031 459.183594 Z M 536.847656 443.121094 C 536.847656 442.445312 536.300781 441.890625 535.621094 441.890625 L 527.425781 441.890625 C 526.75 441.890625 526.199219 442.445312 526.199219 443.121094 C 526.199219 443.800781 526.75 444.351562 527.425781 444.351562 L 535.621094 444.351562 C 536.300781 444.351562 536.847656 443.800781 536.847656 443.121094 Z M 537.855469 435.09375 C 537.855469 434.417969 537.308594 433.863281 536.628906 433.863281 L 528.4375 433.863281 C 527.757812 433.863281 527.210938 434.417969 527.210938 435.09375 C 527.210938 435.769531 527.757812 436.324219 528.4375 436.324219 L 536.628906 436.324219 C 537.308594 436.324219 537.855469 435.769531 537.855469 435.09375 Z M 538.871094 427.066406 C 538.871094 426.386719 538.316406 425.835938 537.640625 425.835938 L 529.449219 425.835938 C 528.769531 425.835938 528.21875 426.386719 528.21875 427.066406 C 528.21875 427.742188 528.769531 428.296875 529.449219 428.296875 L 537.640625 428.296875 C 538.316406 428.296875 538.871094 427.742188 538.871094 427.066406 Z M 422.355469 422.320312 C 422.230469 423.320312 422.941406 424.136719 423.945312 424.136719 C 424.949219 424.136719 425.867188 423.320312 425.992188 422.320312 C 426.121094 421.316406 425.410156 420.5 424.402344 420.5 C 423.398438 420.5 422.484375 421.316406 422.355469 422.320312 Z M 437.179688 309.210938 C 437.054688 310.214844 437.765625 311.027344 438.769531 311.027344 C 439.769531 311.027344 440.6875 310.214844 440.8125 309.210938 C 440.9375 308.207031 440.226562 307.390625 439.222656 307.390625 C 438.222656 307.390625 437.304688 308.207031 437.179688 309.210938 Z M 455.367188 352.390625 C 454.691406 352.390625 454.136719 352.9375 454.136719 353.617188 C 454.136719 354.296875 454.691406 354.847656 455.367188 354.847656 L 470.425781 354.847656 C 471.101562 354.847656 471.652344 354.296875 471.652344 353.617188 C 471.652344 352.9375 471.101562 352.390625 470.425781 352.390625 Z M 543.472656 390.433594 C 543.472656 389.753906 542.921875 389.203125 542.246094 389.203125 L 534.050781 389.203125 C 533.375 389.203125 532.820312 389.753906 532.820312 390.433594 C 532.820312 391.113281 533.375 391.660156 534.050781 391.660156 L 542.246094 391.660156 C 542.921875 391.660156 543.472656 391.113281 543.472656 390.433594 Z M 544.480469 382.40625 C 544.480469 381.722656 543.929688 381.175781 543.253906 381.175781 L 535.058594 381.175781 C 534.382812 381.175781 533.828125 381.722656 533.828125 382.40625 C 533.828125 383.082031 534.382812 383.632812 535.058594 383.632812 L 543.253906 383.632812 C 543.929688 383.632812 544.480469 383.082031 544.480469 382.40625 Z M 545.488281 374.371094 C 545.488281 373.695312 544.9375 373.144531 544.261719 373.144531 L 536.066406 373.144531 C 535.390625 373.144531 534.839844 373.695312 534.839844 374.371094 C 534.839844 375.054688 535.390625 375.601562 536.066406 375.601562 L 544.261719 375.601562 C 544.9375 375.601562 545.488281 375.054688 545.488281 374.371094 Z M 546.496094 366.347656 C 546.496094 365.664062 545.949219 365.117188 545.269531 365.117188 L 537.078125 365.117188 C 536.398438 365.117188 535.851562 365.664062 535.851562 366.347656 C 535.851562 367.023438 536.398438 367.574219 537.078125 367.574219 L 545.269531 367.574219 C 545.949219 367.574219 546.496094 367.023438 546.496094 366.347656 Z M 548.519531 350.289062 C 548.519531 349.605469 547.964844 349.058594 547.289062 349.058594 L 539.09375 349.058594 C 538.417969 349.058594 537.867188 349.605469 537.867188 350.289062 C 537.867188 350.964844 538.417969 351.515625 539.09375 351.515625 L 547.289062 351.515625 C 547.964844 351.515625 548.519531 350.964844 548.519531 350.289062 Z M 549.527344 342.253906 C 549.527344 341.578125 548.972656 341.027344 548.296875 341.027344 L 540.105469 341.027344 C 539.425781 341.027344 538.875 341.578125 538.875 342.253906 C 538.875 342.933594 539.425781 343.484375 540.105469 343.484375 L 548.296875 343.484375 C 548.972656 343.484375 549.527344 342.933594 549.527344 342.253906 Z M 550.535156 334.226562 C 550.535156 333.546875 549.988281 333 549.304688 333 L 541.117188 333 C 540.433594 333 539.886719 333.546875 539.886719 334.226562 C 539.886719 334.90625 540.433594 335.457031 541.117188 335.457031 L 549.304688 335.457031 C 549.988281 335.457031 550.535156 334.90625 550.535156 334.226562 Z M 551.542969 326.195312 C 551.542969 325.519531 550.996094 324.96875 550.3125 324.96875 L 542.125 324.96875 C 541.441406 324.96875 540.894531 325.519531 540.894531 326.195312 C 540.894531 326.875 541.441406 327.425781 542.125 327.425781 L 550.3125 327.425781 C 550.996094 327.425781 551.542969 326.875 551.542969 326.195312 Z M 552.550781 318.164062 C 552.550781 317.488281 552.003906 316.9375 551.320312 316.9375 L 543.132812 316.9375 C 542.457031 316.9375 541.902344 317.488281 541.902344 318.164062 C 541.902344 318.847656 542.457031 319.394531 543.132812 319.394531 L 551.320312 319.394531 C 552.003906 319.394531 552.550781 318.847656 552.550781 318.164062 Z M 364.269531 323.929688 L 370.050781 323.640625 C 370.332031 320.273438 371.308594 317.167969 372.902344 316.378906 C 371.203125 316.203125 369.550781 316.25 368.292969 316.800781 C 368.210938 312.539062 366.527344 310.265625 365.46875 307.589844 C 365.453125 310.652344 366.285156 309.710938 365.964844 313.816406 C 365.789062 316.089844 366.246094 318.425781 365.714844 320.640625 C 365.4375 321.816406 364.890625 322.890625 364.269531 323.929688 Z M 371.285156 323.582031 L 376.097656 323.339844 C 375.734375 319.664062 374.558594 317.414062 373.703125 317.414062 C 372.828125 317.414062 371.621094 319.761719 371.285156 323.582031 Z M 376.1875 324.5625 L 371.203125 324.8125 C 371.191406 325.101562 371.1875 325.394531 371.1875 325.695312 C 371.1875 330.753906 372.675781 333.980469 373.703125 333.980469 C 374.726562 333.980469 376.21875 330.753906 376.21875 325.695312 C 376.21875 325.308594 376.203125 324.933594 376.1875 324.5625 Z M 260.320312 373.964844 C 258.984375 365.179688 261.546875 355.875 267.199219 349.019531 C 269.265625 346.503906 271.824219 344.117188 272.464844 340.925781 C 273.117188 337.632812 271.554688 334.359375 270.839844 331.078125 C 269.480469 324.820312 271.417969 317.933594 275.84375 313.300781 C 279.234375 309.75 283.933594 307.492188 286.800781 303.5 C 289.207031 300.152344 290.050781 295.976562 291.699219 292.203125 C 296.320312 281.621094 308.007812 274.578125 319.519531 275.433594 C 322.71875 271.449219 328.914062 269.582031 333.941406 270.46875 C 338.972656 271.355469 343.449219 274.214844 347.359375 277.496094 C 359.671875 275.609375 375.148438 287.359375 379.449219 317.839844 C 378.292969 317.492188 376.679688 317.03125 374.980469 316.695312 C 376.585938 318.0625 377.445312 321.976562 377.445312 325.695312 C 377.445312 330.304688 376.132812 335.207031 373.703125 335.207031 C 371.269531 335.207031 369.957031 330.304688 369.957031 325.695312 C 369.957031 325.421875 369.964844 325.148438 369.972656 324.875 L 367.1875 325.015625 C 367.722656 325.296875 368.121094 326.351562 368.121094 327.613281 C 368.121094 329.089844 367.574219 330.292969 366.902344 330.292969 C 366.222656 330.292969 365.679688 329.089844 365.679688 327.613281 C 365.679688 326.386719 366.054688 325.367188 366.566406 325.042969 L 363.484375 325.199219 C 362.753906 326.34375 362.015625 327.492188 361.515625 328.75 C 359.234375 334.515625 362.464844 341.054688 361.558594 347.195312 C 360.988281 351.046875 358.832031 354.464844 357.664062 358.179688 C 356.015625 363.449219 357.175781 370.742188 359.601562 375.707031 L 342.550781 375.707031 C 341.484375 371.6875 340.109375 368.046875 339.957031 363.894531 C 338.824219 368.238281 338.324219 372.199219 337.945312 376.675781 C 335.847656 371.011719 334.460938 365.5 334.324219 359.464844 C 333.722656 364.296875 333.515625 369.128906 332.914062 373.964844 Z M 375.550781 539.828125 C 377.4375 542.199219 379.507812 544.441406 381.773438 546.484375 C 384.023438 548.527344 386.523438 550.34375 389.285156 551.734375 C 390.671875 552.402344 392.136719 552.941406 393.640625 553.320312 C 395.183594 553.65625 396.667969 553.820312 398.160156 554.03125 C 401.15625 554.410156 404.148438 554.785156 407.148438 555.050781 C 413.15625 555.625 419.175781 555.996094 425.207031 556.109375 C 425.355469 556.109375 425.484375 555.992188 425.492188 555.84375 C 425.5 555.691406 425.378906 555.5625 425.226562 555.550781 C 422.226562 555.382812 419.226562 555.136719 416.238281 554.863281 C 413.242188 554.605469 410.25 554.3125 407.265625 553.972656 C 404.28125 553.617188 401.292969 553.277344 398.316406 552.863281 C 396.835938 552.648438 395.324219 552.464844 393.925781 552.148438 C 392.515625 551.78125 391.140625 551.269531 389.820312 550.628906 C 384.527344 548.007812 380.179688 543.722656 376.351562 539.171875 C 374.433594 536.882812 372.652344 534.464844 370.980469 531.980469 C 369.292969 529.503906 367.699219 526.949219 366.273438 524.316406 L 366.265625 524.308594 C 366.203125 524.195312 366.070312 524.152344 365.957031 524.210938 C 365.839844 524.269531 365.792969 524.410156 365.847656 524.523438 C 368.539062 529.945312 371.769531 535.085938 375.550781 539.828125 Z M 334.421875 465.539062 C 333.742188 465.132812 333.113281 464.65625 332.507812 464.144531 C 331.90625 463.621094 331.355469 463.03125 330.804688 462.410156 C 330.738281 462.339844 330.632812 462.308594 330.535156 462.347656 C 330.414062 462.394531 330.351562 462.535156 330.402344 462.65625 C 331.039062 464.269531 332.289062 465.644531 333.769531 466.582031 C 334.519531 467.046875 335.3125 467.425781 336.136719 467.6875 C 336.832031 467.90625 337.539062 468.054688 338.253906 468.148438 C 340.621094 473.539062 343.078125 478.890625 345.550781 484.234375 C 348.371094 490.179688 351.214844 496.113281 354.132812 502.007812 C 357.054688 507.902344 360.035156 513.765625 363.15625 519.566406 C 363.222656 519.699219 363.390625 519.75 363.523438 519.683594 C 363.660156 519.617188 363.71875 519.449219 363.652344 519.308594 C 362.195312 516.363281 360.78125 513.394531 359.371094 510.429688 L 355.113281 501.53125 L 346.660156 483.710938 C 343.835938 477.777344 341.082031 471.804688 338.359375 465.828125 C 336.996094 462.835938 335.667969 459.832031 334.375 456.816406 C 333.097656 453.796875 331.78125 450.773438 330.828125 447.652344 L 330.824219 447.636719 C 330.789062 447.519531 330.660156 447.449219 330.535156 447.484375 C 330.410156 447.519531 330.339844 447.648438 330.375 447.773438 C 332.195312 454.144531 334.832031 460.191406 337.410156 466.246094 C 337.558594 466.582031 337.710938 466.917969 337.859375 467.253906 C 337.414062 467.0625 336.960938 466.875 336.535156 466.671875 C 335.804688 466.324219 335.089844 465.964844 334.421875 465.539062 Z M 366.675781 348.84375 C 367.140625 349.140625 367.664062 349.328125 368.195312 349.457031 C 368.734375 349.5625 369.277344 349.613281 369.816406 349.5625 C 370.082031 349.542969 370.34375 349.488281 370.605469 349.453125 C 370.867188 349.375 371.121094 349.308594 371.363281 349.207031 C 371.441406 349.171875 371.5 349.101562 371.515625 349.019531 C 371.53125 348.886719 371.441406 348.761719 371.308594 348.742188 C 370.292969 348.582031 369.367188 348.476562 368.46875 348.261719 C 368.023438 348.15625 367.59375 348.015625 367.15625 347.867188 C 366.726562 347.71875 366.292969 347.511719 365.886719 347.316406 L 365.835938 347.285156 C 365.753906 347.25 365.65625 347.25 365.570312 347.300781 C 365.4375 347.378906 365.394531 347.550781 365.46875 347.679688 C 365.777344 348.203125 366.203125 348.542969 366.675781 348.84375 Z M 620.933594 557.457031 L 599.652344 525.460938 L 599.652344 525.179688 L 584.265625 525.007812 L 568.875 524.957031 L 538.09375 524.84375 L 507.308594 524.980469 L 491.921875 525.046875 L 476.527344 525.226562 L 476.527344 525.695312 L 476.886719 525.699219 L 478.101562 526.511719 L 482.175781 533.519531 L 475 532.496094 C 475.042969 532.480469 475.089844 532.464844 475.132812 532.441406 C 475.414062 532.300781 475.648438 532.089844 475.859375 531.863281 C 476.054688 531.625 476.234375 531.363281 476.339844 531.070312 C 476.445312 530.777344 476.515625 530.472656 476.484375 530.144531 C 476.472656 530.085938 476.449219 530.027344 476.410156 529.976562 C 476.300781 529.847656 476.105469 529.832031 475.972656 529.945312 L 475.960938 529.953125 C 475.734375 530.144531 475.570312 530.335938 475.398438 530.519531 C 475.226562 530.699219 475.082031 530.886719 474.925781 531.066406 C 474.777344 531.253906 474.621094 531.433594 474.476562 531.636719 C 474.324219 531.839844 474.164062 532.042969 474.011719 532.296875 L 474 532.304688 C 474 532.316406 474 532.320312 473.996094 532.328125 L 473.925781 532.21875 L 466.847656 530.722656 C 466.890625 530.546875 466.941406 530.378906 466.972656 530.210938 C 467.097656 529.621094 467.132812 529.023438 467.136719 528.421875 C 467.121094 527.816406 467.074219 527.21875 466.941406 526.632812 C 466.816406 526.046875 466.640625 525.464844 466.363281 524.925781 C 466.316406 524.835938 466.21875 524.773438 466.113281 524.773438 C 465.957031 524.769531 465.820312 524.898438 465.820312 525.054688 C 465.8125 525.640625 465.847656 526.203125 465.859375 526.765625 L 465.90625 528.441406 L 465.941406 530.117188 C 465.945312 530.476562 465.957031 530.847656 465.960938 531.210938 L 462.433594 530.707031 C 450.152344 528.867188 437.867188 527 425.699219 524.601562 C 422.664062 523.996094 419.617188 523.382812 416.683594 522.515625 C 415.960938 522.292969 415.222656 522.050781 414.609375 521.734375 C 414.277344 521.550781 414.21875 521.511719 413.976562 521.121094 L 413.351562 520.179688 C 412.535156 518.863281 411.722656 517.542969 410.933594 516.207031 C 407.753906 510.878906 404.644531 505.496094 401.539062 500.121094 L 390.546875 481.027344 L 521.820312 481.027344 L 529.050781 508.679688 L 581.136719 508.679688 L 573.910156 481.027344 L 653.007812 481.027344 C 660.726562 481.027344 667.207031 475.222656 668.054688 467.558594 L 687.089844 295.855469 C 688.082031 286.886719 681.0625 279.042969 672.039062 279.042969 L 405.511719 279.042969 C 397.792969 279.042969 391.3125 284.847656 390.464844 292.519531 L 373.792969 442.917969 C 375.367188 447.523438 376.664062 452.011719 377.5 456.136719 L 395.570312 293.085938 C 396.132812 288.011719 400.40625 284.183594 405.511719 284.183594 L 672.039062 284.183594 C 674.917969 284.183594 677.570312 285.371094 679.488281 287.515625 C 681.414062 289.664062 682.296875 292.421875 681.980469 295.289062 L 662.949219 466.992188 C 662.386719 472.058594 658.109375 475.886719 653.007812 475.886719 L 532.601562 475.886719 C 532.726562 475.699219 532.8125 475.484375 532.8125 475.242188 C 532.8125 474.5625 532.265625 474.015625 531.582031 474.015625 L 523.394531 474.015625 C 522.710938 474.015625 522.164062 474.5625 522.164062 475.242188 C 522.164062 475.484375 522.253906 475.699219 522.375 475.886719 L 387.585938 475.886719 L 382.933594 467.816406 C 382.871094 467.710938 382.730469 467.667969 382.617188 467.730469 C 382.507812 467.792969 382.460938 467.9375 382.523438 468.050781 L 386.859375 475.886719 L 386.71875 475.886719 C 387.609375 477.632812 388.492188 479.347656 389.367188 481.027344 L 389.695312 481.027344 L 391.539062 484.363281 L 400.703125 500.601562 C 403.773438 506.003906 406.84375 511.402344 409.992188 516.765625 C 410.773438 518.109375 411.582031 519.445312 412.394531 520.777344 L 413.050781 521.777344 C 413.1875 521.960938 413.199219 522.074219 413.460938 522.320312 C 413.683594 522.539062 413.871094 522.628906 414.066406 522.742188 C 414.835938 523.140625 415.582031 523.382812 416.34375 523.625 C 419.363281 524.539062 422.410156 525.171875 425.460938 525.800781 C 437.6875 528.152344 449.992188 529.9375 462.289062 531.710938 L 480.757812 534.246094 L 499.257812 536.515625 C 499.410156 536.53125 499.550781 536.425781 499.566406 536.277344 C 499.589844 536.121094 499.480469 535.984375 499.332031 535.964844 L 492.496094 534.988281 L 498.539062 525.902344 L 507.308594 525.941406 L 538.09375 526.070312 L 568.875 525.964844 L 584.265625 525.910156 L 591.703125 525.824219 L 612.738281 557.457031 L 604.949219 557.457031 L 593.785156 544.820312 L 588.632812 548.207031 L 598.171875 557.457031 L 567.253906 557.457031 L 595.367188 539.613281 L 555.757812 539.613281 L 561.714844 550.558594 C 562.167969 551.398438 561.824219 552.449219 560.957031 552.847656 C 559.347656 552.734375 557.527344 551.976562 555.984375 550.902344 C 555.984375 550.867188 555.996094 550.835938 555.984375 550.804688 C 555.320312 549.242188 555.304688 547.519531 555.09375 545.75 C 555 544.855469 554.804688 543.941406 554.457031 543.058594 C 554.105469 542.175781 553.605469 541.375 553.027344 540.648438 C 551.832031 539.234375 550.390625 538.113281 548.9375 537.125 C 547.480469 536.128906 546.027344 535.191406 544.722656 534.046875 C 544.640625 533.972656 544.511719 533.96875 544.417969 534.042969 C 544.316406 534.125 544.304688 534.269531 544.386719 534.371094 C 545.519531 535.777344 546.953125 536.875 548.320312 537.960938 C 549.691406 539.042969 551.046875 540.101562 552.074219 541.421875 C 552.597656 542.066406 553.054688 542.757812 553.367188 543.5 C 553.691406 544.246094 553.847656 545.066406 554.019531 545.90625 C 554.273438 547.273438 554.433594 548.789062 555.027344 550.164062 C 554.273438 549.515625 553.621094 548.804688 553.175781 548.0625 L 549.257812 541.515625 L 542.296875 539.832031 C 542.28125 539.8125 542.273438 539.796875 542.257812 539.78125 C 542.195312 539.707031 542.09375 539.671875 542 539.703125 C 541.976562 539.714844 541.964844 539.738281 541.945312 539.746094 L 541.855469 539.726562 L 532.0625 547.304688 C 532.074219 547.246094 532.082031 547.191406 532.085938 547.140625 C 532.144531 546.625 532.113281 546.113281 532.035156 545.605469 C 531.949219 545.09375 531.8125 544.597656 531.601562 544.125 C 531.390625 543.660156 531.136719 543.207031 530.785156 542.824219 C 530.71875 542.757812 530.617188 542.71875 530.523438 542.738281 C 530.363281 542.761719 530.257812 542.914062 530.289062 543.074219 C 530.363281 543.558594 530.480469 544.011719 530.566406 544.460938 C 530.648438 544.917969 530.753906 545.359375 530.824219 545.8125 C 530.917969 546.257812 530.972656 546.707031 531.050781 547.164062 C 531.09375 547.433594 531.136719 547.710938 531.179688 547.988281 L 523.398438 554.011719 C 521.1875 555.71875 518.628906 556.871094 515.929688 557.457031 L 508.371094 557.457031 L 498.789062 556.132812 C 499.375 555.609375 499.902344 555 500.273438 554.277344 C 500.746094 553.402344 500.972656 552.363281 500.824219 551.394531 C 500.804688 551.277344 500.710938 551.179688 500.585938 551.160156 C 500.429688 551.140625 500.292969 551.246094 500.265625 551.398438 C 500.136719 552.261719 499.832031 553.046875 499.359375 553.730469 C 499.160156 554.015625 498.921875 554.277344 498.683594 554.539062 C 498.667969 553.972656 498.597656 553.414062 498.460938 552.867188 C 498.207031 551.8125 497.765625 550.804688 497.105469 549.96875 C 497.042969 549.886719 496.929688 549.851562 496.835938 549.890625 C 496.710938 549.9375 496.652344 550.074219 496.695312 550.199219 C 497.050781 551.144531 497.308594 552.089844 497.421875 553.054688 C 497.53125 554.019531 497.527344 554.984375 497.378906 555.925781 C 497.371094 555.960938 497.382812 555.988281 497.382812 556.023438 L 431.375 555.546875 L 428.488281 557.457031 L 368.019531 557.457031 C 368.171875 557.871094 368.328125 558.277344 368.480469 558.6875 L 687.183594 558.6875 L 687.183594 557.457031 Z M 185.710938 557.457031 L 185.710938 558.6875 L 323.117188 558.6875 C 331.445312 558.6875 333.84375 557.457031 333.84375 557.457031 C 334.925781 557.164062 335.964844 556.769531 336.949219 556.289062 C 344 552.839844 348.246094 544.808594 346.234375 536.53125 L 322.71875 439.769531 C 320.820312 431.953125 313.824219 426.457031 305.789062 426.457031 L 174.414062 426.457031 C 163.128906 426.457031 154.820312 437.027344 157.484375 448 L 181 544.757812 C 182.527344 551.042969 187.355469 555.820312 193.367188 557.457031 Z M 376.476562 576.644531 C 376.476562 576.644531 376.449219 576.871094 376.382812 577.261719 L 376.386719 577.261719 C 375.527344 582.394531 367.703125 619.207031 319.148438 619.207031 C 301.375 619.207031 288.523438 616.269531 281.371094 614.054688 C 283.910156 628.589844 296.582031 639.644531 311.84375 639.644531 L 405.246094 639.644531 C 428.371094 639.644531 450.9375 630.007812 450.9375 630.007812 L 443.683594 673 L 491.300781 673 C 491.300781 673 496.8125 630.007812 499.1875 601.164062 C 500.578125 584.273438 488.140625 578.855469 477.589844 577.261719 L 563.257812 577.261719 L 557.695312 625.160156 L 575.304688 628.078125 L 581.207031 577.261719 L 644.605469 577.261719 L 651.980469 640.785156 L 670.277344 643.816406 L 662.554688 577.261719 L 687.183594 577.261719 L 687.183594 576.03125 L 376.160156 576.03125 C 376.363281 576.425781 376.476562 576.644531 376.476562 576.644531 Z M 270.101562 576.03125 L 185.710938 576.03125 L 185.710938 577.261719 L 226.308594 577.261719 C 226.273438 577.441406 226.289062 577.636719 226.238281 577.816406 L 226.074219 579.054688 C 225.949219 579.882812 225.90625 580.71875 225.824219 581.546875 L 225.6875 584.050781 L 225.617188 585.296875 L 225.585938 585.925781 C 225.597656 586.136719 225.445312 586.328125 225.84375 586.585938 C 226.296875 586.425781 226.183594 586.203125 226.253906 586.003906 L 226.363281 585.382812 L 226.582031 584.148438 L 227.023438 581.6875 C 227.128906 580.855469 227.28125 580.035156 227.351562 579.207031 L 227.476562 577.960938 C 227.460938 577.726562 227.5625 577.5 227.519531 577.261719 L 270.121094 577.261719 C 270.109375 576.851562 270.105469 576.445312 270.101562 576.03125 Z M 478.855469 309.207031 C 478.855469 308.53125 478.300781 307.976562 477.625 307.976562 L 459.328125 307.976562 C 458.648438 307.976562 458.097656 308.53125 458.097656 309.207031 C 458.097656 309.886719 458.648438 310.433594 459.328125 310.433594 L 477.625 310.433594 C 478.300781 310.433594 478.855469 309.886719 478.855469 309.207031 Z M 430.296875 309.210938 C 430.171875 310.214844 430.882812 311.027344 431.886719 311.027344 C 432.886719 311.027344 433.804688 310.214844 433.929688 309.210938 C 434.058594 308.207031 433.347656 307.390625 432.339844 307.390625 C 431.34375 307.390625 430.425781 308.207031 430.296875 309.210938 Z M 425.007812 311.027344 C 424.003906 311.027344 423.289062 310.214844 423.417969 309.210938 C 423.542969 308.207031 424.460938 307.390625 425.460938 307.390625 C 426.464844 307.390625 427.175781 308.207031 427.050781 309.210938 C 426.925781 310.214844 426.007812 311.027344 425.007812 311.027344 "/>
</g>
<g clip-path="url(#clip4)" clip-rule="nonzero">
<path style=" stroke:none;fill-rule:nonzero;fill:rgb(46.669006%,48.239136%,52.159119%);fill-opacity:1;" d="M 597.09375 508.679688 L 587.199219 508.679688 L 579.972656 481.027344 L 573.910156 481.027344 L 581.136719 508.679688 L 477.585938 508.679688 C 472.359375 508.679688 468.121094 512.921875 468.121094 518.152344 L 606.566406 518.152344 C 606.566406 512.921875 602.328125 508.679688 597.09375 508.679688 Z M 262.21875 508.03125 L 241.820312 508.03125 C 240.511719 508.03125 239.410156 509.011719 239.261719 510.308594 L 222.742188 653.449219 C 222.570312 654.976562 223.765625 656.320312 225.300781 656.320312 L 245.707031 656.320312 C 247.011719 656.320312 248.113281 655.339844 248.265625 654.039062 L 264.777344 510.902344 C 264.957031 509.371094 263.761719 508.03125 262.21875 508.03125 Z M 566.328125 558.042969 L 574.605469 558.042969 L 593.457031 545.652344 L 604.410156 558.042969 L 610.527344 558.042969 L 595.367188 539.613281 Z M 680.152344 279.042969 L 672.039062 279.042969 C 681.0625 279.042969 688.082031 286.886719 687.089844 295.855469 L 668.054688 467.558594 C 667.207031 475.222656 660.726562 481.027344 653.007812 481.027344 L 661.121094 481.027344 C 668.832031 481.027344 675.316406 475.222656 676.167969 467.558594 L 695.199219 295.855469 C 696.195312 286.886719 689.171875 279.042969 680.152344 279.042969 Z M 478.855469 309.207031 C 478.855469 308.53125 478.300781 307.976562 477.625 307.976562 L 459.328125 307.976562 C 458.648438 307.976562 458.097656 308.53125 458.097656 309.207031 C 458.097656 309.886719 458.648438 310.433594 459.328125 310.433594 L 477.625 310.433594 C 478.300781 310.433594 478.855469 309.886719 478.855469 309.207031 Z M 432.339844 307.390625 C 431.34375 307.390625 430.425781 308.207031 430.296875 309.210938 C 430.171875 310.214844 430.882812 311.027344 431.886719 311.027344 C 432.886719 311.027344 433.804688 310.214844 433.929688 309.210938 C 434.058594 308.207031 433.347656 307.390625 432.339844 307.390625 Z M 425.460938 307.390625 C 424.460938 307.390625 423.542969 308.207031 423.417969 309.210938 C 423.289062 310.214844 424.003906 311.027344 425.007812 311.027344 C 426.007812 311.027344 426.925781 310.214844 427.050781 309.210938 C 427.175781 308.207031 426.464844 307.390625 425.460938 307.390625 Z M 440.8125 309.210938 C 440.6875 310.214844 439.769531 311.027344 438.769531 311.027344 C 437.765625 311.027344 437.054688 310.214844 437.179688 309.210938 C 437.304688 308.207031 438.222656 307.390625 439.222656 307.390625 C 440.226562 307.390625 440.9375 308.207031 440.8125 309.210938 "/>
</g>
</g>
</svg>
